<svg version="1.1" id="Layer_1" xmlns="http://www.w3.org/2000/svg" x="0" y="0" width="270" height="270" xml:space="preserve"><style>.st1{fill:none;stroke:#3f5d69;stroke-width:.5069;stroke-miterlimit:10}.st2{fill:#4f5764}</style><g opacity=".2"><path class="st1" d="M15.4 124.2l118.5 124.2 74.9-214.2-193.4 90"/><path class="st1" d="M220.2 158.5L137.4 17.4l111.4 98.2-29.4 45.6"/><path class="st1" d="M248.8 115.6l-233.4 8.6 37-68.6 85-38.2"/><circle class="st2" cx="248.8" cy="115.6" r="4.1"/><circle class="st2" cx="15.4" cy="124.2" r="4.6"/><circle class="st2" cx="137.4" cy="17.4" r="4.1"/><circle class="st2" cx="52.4" cy="55.6" r="3.3"/><circle class="st2" cx="133.9" cy="248.4" r="3.8"/><circle class="st2" cx="208.8" cy="34.2" r="4.7"/><circle class="st2" cx="219.4" cy="161.2" r="5.3"/></g><linearGradient id="SVGID_1_" gradientUnits="userSpaceOnUse" x1="126.354" y1="93.257" x2="138.747" y2="93.257"><stop offset="0" stop-color="#4f5764"/><stop offset=".668" stop-color="#293942"/><stop offset="1" stop-color="#111c21"/></linearGradient><path fill="url(#SVGID_1_)" d="M126.4 80.3h12.4v26h-12.4z"/><linearGradient id="SVGID_2_" gradientUnits="userSpaceOnUse" x1="96.795" y1="187.505" x2="114.252" y2="97.101"><stop offset="0" stop-color="#d0d1d3"/><stop offset=".522" stop-color="#cdd2d1"/><stop offset=".994" stop-color="#f2f2f2"/></linearGradient><path fill="url(#SVGID_2_)" d="M97.4 97.1h16.2v90.6H97.4z"/><linearGradient id="SVGID_3_" gradientUnits="userSpaceOnUse" x1="80.999" y1="93.257" x2="126.354" y2="93.257"><stop offset="0" stop-color="#4f5764"/><stop offset=".668" stop-color="#293942"/><stop offset="1" stop-color="#111c21"/></linearGradient><path fill="url(#SVGID_3_)" d="M81 85.4h45.4v15.7H81z"/><linearGradient id="SVGID_4_" gradientUnits="userSpaceOnUse" x1="145.871" y1="185.065" x2="190.581" y2="87.234"><stop offset="0" stop-color="#3d96d2"/><stop offset="1" stop-color="#069fb0"/></linearGradient><path d="M181.1 81.2l-2 .9v10.7l-8.6 5.7-7.6-5.7V82.2l-1.4-.7-8.1 11.6v12.3l9.5 8.5v73.8h16.3v-74.2l9.8-8.9V93.2l-7.9-12zm-9.9 101.2c-1.7 0-3-1.4-3-3 0-1.7 1.4-3 3-3 1.7 0 3 1.4 3 3s-1.3 3-3 3z" fill="url(#SVGID_4_)"/></svg>