<svg version="1.1" id="Layer_1" xmlns="http://www.w3.org/2000/svg" xmlns:xlink="http://www.w3.org/1999/xlink" x="0" y="0" width="1780" height="850" viewBox="755 -290 1780 850" xml:space="preserve"><style>.st2{opacity:.9}.st5{opacity:.8}.st15{opacity:.1;fill:#fff;enable-background:new}.st16,.st17{fill:#575c7a}.st17{display:none}.st54{opacity:.17;fill:#efefef;enable-background:new}.st68{fill:#929497}.st70{fill:#fff}.st75{opacity:.21;fill:#231f20;enable-background:new}</style><linearGradient id="sky_x2F_space_2_" gradientUnits="userSpaceOnUse" x1="1663.347" y1="-52.344" x2="1617.276" y2="-918.142" gradientTransform="translate(0 634)"><stop offset="0" stop-color="#f3c187"/><stop offset=".053" stop-color="#f4aa8d"/><stop offset=".119" stop-color="#df7d66"/><stop offset=".306" stop-color="#4e5763"/><stop offset=".591" stop-color="#0c3c4c"/><stop offset="1" stop-color="#0e1c22"/></linearGradient><path id="sky_x2F_space_1_" fill="url(#sky_x2F_space_2_)" d="M733.1-305.9h1807.1v770.5H733.1z"/><linearGradient id="river_2_" gradientUnits="userSpaceOnUse" x1="1618.38" y1="-375.027" x2="1761.745" y2="130.808" gradientTransform="translate(0 634)"><stop offset=".079" stop-color="#c5817e"/><stop offset=".364" stop-color="#57606d"/><stop offset=".699" stop-color="#33434c"/><stop offset="1" stop-color="#2d3a41"/></linearGradient><path id="river_1_" fill="url(#river_2_)" d="M2540.2 610.4H1148.9l-301.5.4 167.1-89.7 134.4-81.9h1391.3z"/><g id="mountain_1_" class="st2"><linearGradient id="SVGID_1_" gradientUnits="userSpaceOnUse" x1="1539.628" y1="-194.429" x2="1539.628" y2="-310.173" gradientTransform="translate(0 634)"><stop offset="0" stop-color="#425b6a"/><stop offset="1" stop-color="#30414a"/></linearGradient><path fill="url(#SVGID_1_)" d="M1363.1 441.2l-13.8.1.6-1.6 46.5-25.6 15.1-3.9 4.1-7.4 8.3-2.9 6.6-4.3 9.7 5.5 4 1 7.9-1.1 17.9-13.2 21.3-14.8 7 1 16.5-16.8 6.5 3 3.2-4.9 7.2-2.9 7-7.8 6.7-4.2 8.2-9.5 5.4 2.6 8.4 6.8 8.7 7.1 7.4 2.6 4.1 3.4 1.4.5 6.2-1.8 3.4 3.5 3.7 3.8 3.8 3.7 2.3-1.4 9.1 7.5 10.3 7.3 9.1 9.1.4 2.2 5-.5 5.1 3.4h4l16.4 11.8 62.2 38.7z"/><linearGradient id="SVGID_2_" gradientUnits="userSpaceOnUse" x1="1664.724" y1="-182.608" x2="1757.852" y2="-224.434" gradientTransform="translate(0 634)"><stop offset="0" stop-color="#475e6d"/><stop offset="1" stop-color="#30414a"/></linearGradient><path fill="url(#SVGID_2_)" d="M1748.5 441.2h28.9l-38.8-14.1-31.6-16.8-15.5-9.9-8.3 2.3-15 11.7-9.2 6-13.8 8.9-11 5.4-16.7 6.5h2.3z"/><g class="st5"><linearGradient id="SVGID_3_" gradientUnits="userSpaceOnUse" x1="1546.378" y1="-283.6" x2="1606.078" y2="-283.6" gradientTransform="translate(0 634)"><stop offset="0" stop-color="#fdd8cd"/><stop offset="1" stop-color="#e9b8ad"/></linearGradient><path fill="url(#SVGID_3_)" d="M1565.9 352.3l-6.6-7.7-3-11.2-2.7-2.5 5.4 2.6 8.4 6.8 8.7 7.1 7.4 2.6 4.1 3.4 2.5 2.6 2.7 1 2.4-4.9 10.9 11-4.4 2.5-1.4 3.1-3-2.5-5.6 2.3-6.9-5.4-6.1-4.1 9.5 10.5-1.4.4-6.7-4.3-5.2-5.2-5.5-4.4 2.3 5-3.3.1-13-12.2-9-7.7 6 2.7 3.8.8z"/><path fill="#fdd8cd" d="M1568.5 369.5l3.9 4.9-4.1-1.9-6.8-1.8 7.1 7.1 6.2 3.8.8.9 5.1-2.1 2.1-.9z"/><linearGradient id="SVGID_4_" gradientUnits="userSpaceOnUse" x1="1602.587" y1="-252.988" x2="1666.41" y2="-211.703" gradientTransform="translate(0 634)"><stop offset="0" stop-color="#fdd8cd"/><stop offset="1" stop-color="#e9b8ad"/></linearGradient><path fill="url(#SVGID_4_)" d="M1671.3 404.8l-10.9-7.6-9-6.5.5 4-4.5-4-5.1-3.4h-1.6l-3.8-1.7-5.3-5.4-3.8-3.7-7.4-5.3-2.9-2-9.1-7.5-1.1 8.3 1.7 5.9-11.7-9.7-2.3 5.5 1.4 2.3 10.2 9.4-8.6-4.8-8.4-2.6 2.3 6 4.8 3.4 10.6 9.5-3-.3 3.1 3.4-13.2-4.6h-2.4l-10.3-6.7.6 4.1 11.9 7.7 4.4.7 28.3 7.7-6.7-4.8 16.5 7 9.4.8 3 .3-22.7-19 28.3 17.8 10.8 4 2.9 1.4 8.1-6.3z"/><linearGradient id="SVGID_5_" gradientUnits="userSpaceOnUse" x1="1691.078" y1="-220.25" x2="1738.578" y2="-220.25" gradientTransform="translate(0 634)"><stop offset="0" stop-color="#fdd8cd"/><stop offset="1" stop-color="#bf8980"/></linearGradient><path fill="url(#SVGID_5_)" d="M1700.1 418.6l-8.1-6.3 8.4 4.6-1.1-1.7 3.5 1.9-9.8-10.6-1.9-3.6 1.9.9-1.5-3.4 15.5 9.9 31.6 16.8-18.3-5.9-9.2-5.1 6.1 5.5-5.6-1.5-3.6 2.3z"/></g></g><g id="mountain_-_foreground_1_"><linearGradient id="SVGID_6_" gradientUnits="userSpaceOnUse" x1="1345.678" y1="-220.45" x2="1625.778" y2="-220.45" gradientTransform="translate(0 634)"><stop offset="0" stop-color="#3b4952"/><stop offset=".636" stop-color="#3f515e"/><stop offset="1" stop-color="#4e6271"/></linearGradient><path opacity=".8" fill="url(#SVGID_6_)" d="M1625.8 441.2l-39.7-20.1-15.3-9-11.9-7-4.1-2.6-8.1-6.1-10-8.1-3-.1-4-2.3-9.5 6.1-1.5-1.1-15.2 8.7h-2.4l-4.5 2.3v1.9l-3.6 1.6-6.4 3.9-5.1 2.6-5.6 2.8-1.2.5-6.2 1.6-8.8-4.3-6.3-4.2-6.5-5.2-3.3-1-3.4-1-9.6-5.5-6.5 4.3-8.4 2.9-4.1 7.4-14.5 3.6-47.7 26.1-3.7 1.3h17.3z"/><linearGradient id="SVGID_7_" gradientUnits="userSpaceOnUse" x1="1535" y1="-239.706" x2="1573.703" y2="-209.093" gradientTransform="translate(0 634)"><stop offset=".029" stop-color="#fdd8cd"/><stop offset=".465" stop-color="#d9a499"/><stop offset="1" stop-color="#bf8980"/></linearGradient><path opacity=".8" fill="url(#SVGID_7_)" d="M1588.8 422.8l-22.6-13.1-11.5-7.8-7.1-5-10.9-8.6 4.3 7.8-5.3-2.7.6 1.2-.2 1 1.5 1.4 3.6 4.2 9 6.1.7 2.4-12.1-8.5-3.8-2.2-9.1-6 .9 2.1-8.1-4.2.9 2.1 2.2 1.9.8 1.8v1.8l23.4 14 3.8 1.3-6-5.2 10.4 5.4 8.4 2.3 10.2 2.4-6-4.9 10.2 6z"/></g><path id="land-right3_1_" d="M2303.1 421.1h-34.4l-50.9-1.1h-8.7l-19.1-1.1-29.4-3.4-20.9 4.5-17.5-3.5-18.2 4.1-27.8-12-32.9 7-44.1 8.3-46.6-2.3-24.4 3-11 7-11.2-6.2-48.4 3.9-44.2-3.9-41.6 8.9-52.5 2.2-58.8 3.8-15.9 1 12.8 4.2 7 1 20.5 2.5 35.9 3.8 75.1 10.5 80.3-1.6 318.6-7.6s116.7 5 116.7-23.7l-8.4-9.3z" fill="#445763"/><linearGradient id="SVGID_8_" gradientUnits="userSpaceOnUse" x1="2298.681" y1="73.397" x2="2068.429" y2="-230.733" gradientTransform="matrix(1 0 0 -1 0 270)"><stop offset="0" stop-color="#f4b49c"/><stop offset=".365" stop-color="#5a576c"/><stop offset=".995" stop-color="#3d4e59"/></linearGradient><path fill="url(#SVGID_8_)" d="M2537 394.7l-19.3 4.2-8.3-4-34.8-1-46.8 8.3-49.5-2.3-25.9 3-51.7-6.2-54.8 12.4-56.5 4.1-51.1-2-35.1 12-49.5 2-22.4 6.4-40.6 4.4-51 3.1-30.2 6.2-22.9-6.3-22.3 6.3-18.9-2.3-22.3 2.3-6.1 7.6-43.9 3.8-17 5.6-19.4 5.9-5.2 1.9-69.8 7.8 31.6 1.8 191.3-1.5 28.2 5.3h147.4l296.2-3.6v-26.2l181-12.4z"/><linearGradient id="SVGID_9_" gradientUnits="userSpaceOnUse" x1="2165.663" y1="35.629" x2="2095.465" y2="-628.546" gradientTransform="matrix(1 0 0 -1 0 270)"><stop offset="0" stop-color="#f6d59b"/><stop offset=".147" stop-color="#bea39b"/><stop offset=".26" stop-color="#676279"/><stop offset=".402" stop-color="#3a4c57"/><stop offset="1" stop-color="#3a4850"/></linearGradient><path fill="url(#SVGID_9_)" d="M2514.2 389.7l-55.5 1.2-28.9 8.8-24.3 10.9-16.2.1-30.1-4.2-30.1 14.7-17.8-5.3-20.2 9.3-46 8.9-16.2 3.1-9.8-2.2v-1l-7.6-.8-2.3-.5-.5.2-17.9-2-33.3-7.6-14.9 4.6-24.3 9.8-15.1 12.6-21.1-8.6-16.2.2H2052l-16.3-4.2-30 14.6-17.8-5.2-20.2 9.4-22 4.2-24 4.5-16.2 3.3-19.7-4.6-14.9 5.6-23.7 17.6-24.1 9.6-12.9 4.5h-15.7l-21.4 6.1-14.9.6-19.6 10.4h-10.3l-9.8 4.2 71.7.7-11.2 4.5h-11.5l-9.6 3.5-15.1 1.8 15.1 2.1 18.3 4h27.6l10.1 4.8 22 6h23.8l10.1.3 3.5.5 20.4 3.3 13.5 2.5v-.5l28.5 4.3 67.6 33 30.2-3.9 50.8 15.3 53.1 3.8 100.8 1.8 304.3 1.2V392.7z"/><path class="st15" d="M1661.9 385.7l6.6-5.1h749c3.6 0 6.6 2.3 6.6 5.1s-3 5.1-6.6 5.1h-749l-6.6-5.1zm-813.5 26.5h341.8l5.9-4.5-5.9-4.5H848.4l-5.9 4.5zm696-54.9h299l8.3-5.8-8.3-5.9h-299l-8.4 5.9zm389.4-7h539.3c3.2 0 5.9-1.7 5.9-3.7s-2.7-3.7-5.9-3.7h-539.3l-5.9 3.7 5.9 3.7z"/><g id="stars_1_"><path transform="rotate(45.001 917.124 5.45)" class="st16" d="M914.7 3.1h4.8v4.8h-4.8z"/><path transform="rotate(45.001 1060.527 -51.952)" class="st16" d="M1058.5-53.9h4v4h-4z"/><path transform="rotate(45.001 1323.937 34.203)" class="st16" d="M1322.5 32.8h2.8v2.8h-2.8z"/><path transform="rotate(45.001 1237.481 -103.775)" class="st16" d="M1235.5-105.8h4v4h-4z"/><path transform="rotate(45.001 1199.836 -17.44)" class="st17" d="M1197.4-19.8h4.8v4.8h-4.8z"/><path transform="rotate(45.001 1738.49 -97.592)" class="st16" d="M1736.1-100h4.8v4.8h-4.8z"/><path transform="rotate(45.001 1327.435 89.164)" class="st16" d="M1325 86.8h4.8v4.8h-4.8z"/><path transform="rotate(45.001 1476.632 -126.536)" class="st16" d="M1474.6-128.5h4v4h-4z"/><path transform="rotate(45.001 1316.654 180.928)" class="st16" d="M1314.2 178.5h4.8v4.8h-4.8z"/><path transform="rotate(45.001 1347.11 -105.767)" class="st16" d="M1345.1-107.8h4v4h-4z"/><path transform="rotate(45.001 1213.294 114.913)" class="st16" d="M1210.9 112.5h4.8v4.8h-4.8z"/><path transform="rotate(45.001 1388.61 8.951)" class="st16" d="M1386.2 6.6h4.8v4.8h-4.8z"/><path transform="rotate(45.001 887.222 121.763)" class="st17" d="M884.8 119.4h4.8v4.8h-4.8z"/><path transform="rotate(45.001 989.492 -27.75)" class="st16" d="M987.1-30.1h4.8v4.8h-4.8z"/><path transform="rotate(45.001 1251.537 68.114)" class="st16" d="M1249.1 65.7h4.8v4.8h-4.8z"/><path transform="rotate(45.001 1097.755 10.78)" class="st16" d="M1095.4 8.4h4.8v4.8h-4.8z"/><path transform="rotate(45.001 861.11 167.197)" class="st16" d="M858.7 164.8h4.8v4.8h-4.8z"/><path transform="rotate(45.001 1192.566 81.268)" class="st16" d="M1190.2 78.9h4.8v4.8h-4.8z"/><path transform="rotate(45.001 944.77 -55.192)" class="st16" d="M942.4-57.6h4.8v4.8h-4.8z"/><path transform="rotate(45.001 887.501 -105.884)" class="st16" d="M885.5-107.9h4v4h-4z"/><path transform="rotate(45.001 807.964 20.53)" class="st16" d="M805.6 18.1h4.8v4.8h-4.8z"/><path transform="rotate(45.001 806.728 -80.614)" class="st16" d="M804.3-83h4.8v4.8h-4.8z"/><path transform="rotate(45.001 953.127 -139.565)" class="st16" d="M951.1-141.6h4v4h-4z"/><path transform="rotate(45.001 1055.881 -25.703)" class="st17" d="M1053.5-28.1h4.8v4.8h-4.8z"/><path transform="rotate(45.001 1505.24 54.537)" class="st16" d="M1502.8 52.2h4.8V57h-4.8z"/><path transform="rotate(45.001 1127.854 137.885)" class="st16" d="M1125.4 135.5h4.8v4.8h-4.8z"/><path transform="rotate(45.001 1077.818 -135.16)" class="st16" d="M1075.4-137.5h4.8v4.8h-4.8z"/><path transform="rotate(45.001 1744.136 -114.106)" class="st16" d="M1741.7-116.5h4.8v4.8h-4.8z"/><path transform="rotate(45.001 1181.184 -33.369)" class="st16" d="M1178.8-35.8h4.8v4.8h-4.8z"/><path transform="rotate(45.001 1051.687 112.421)" class="st17" d="M1049.3 110h4.8v4.8h-4.8z"/><path transform="rotate(45.001 1003.523 21.511)" class="st17" d="M1001.1 19.1h4.8v4.8h-4.8z"/><path transform="rotate(45.001 1280.96 -17.66)" class="st16" d="M1279.6-19h2.8v2.8h-2.8z"/><path transform="rotate(45.001 767.918 85.23)" class="st16" d="M765.5 82.8h4.8v4.8h-4.8z"/><path transform="rotate(45.001 1068.309 125.53)" class="st16" d="M1065.9 123.1h4.8v4.8h-4.8z"/><path transform="rotate(45.001 1124.426 -2.188)" class="st16" d="M1122-4.6h4.8V.2h-4.8z"/><path transform="rotate(45.001 1081.245 -5.686)" class="st16" d="M1079.7-7.2h3.1v3.1h-3.1z"/><path transform="rotate(45.001 896.542 99.371)" class="st16" d="M895 97.8h3.1v3.1H895z"/><path transform="rotate(45.001 874.872 -35.443)" class="st16" d="M873.3-37h3.1v3.1h-3.1z"/><path transform="rotate(45.001 948.246 154.833)" class="st16" d="M946.7 153.3h3.1v3.1h-3.1z"/><path transform="rotate(83.258 934.467 68.003)" class="st16" d="M932.9 66.4h3.1v3.1h-3.1z"/><path transform="rotate(45.001 1881.13 -105.662)" class="st16" d="M1878.7-108h4.8v4.8h-4.8z"/><path transform="rotate(45.001 1824.153 -156.344)" class="st16" d="M1821.7-158.7h4.8v4.8h-4.8z"/><path transform="rotate(45.001 1173.158 -117.474)" class="st16" d="M1170.8-119.9h4.8v4.8h-4.8z"/><path transform="rotate(45.001 1298.311 -117.422)" class="st16" d="M1295.9-119.8h4.8v4.8h-4.8z"/><path transform="rotate(45.001 903.743 54.014)" class="st17" d="M902 52.3h3.4v3.4H902z"/><path transform="rotate(45.001 798.828 125.17)" class="st16" d="M796.4 122.8h4.8v4.8h-4.8z"/><path transform="rotate(45.001 1014.55 80.82)" class="st16" d="M1012.8 79.1h3.4v3.4h-3.4z"/><path transform="rotate(45.001 1123.625 18.65)" class="st17" d="M1121.2 16.3h4.8v4.8h-4.8z"/><path transform="rotate(45.001 937.333 60.775)" class="st17" d="M935.6 59.1h3.4v3.4h-3.4z"/><path transform="rotate(45.001 1367.763 99.306)" class="st16" d="M1365.4 96.9h4.8v4.8h-4.8z"/><path transform="rotate(45.001 972.775 25.007)" class="st17" d="M971.1 23.3h3.4v3.4h-3.4z"/><path transform="rotate(45.001 1141.204 72.464)" class="st17" d="M1138.8 70.1h4.8v4.8h-4.8z"/><path transform="rotate(45.001 1222.365 13.57)" class="st16" d="M1220.4 11.6h4v4h-4z"/><path transform="rotate(45.001 1164.485 -86.935)" class="st16" d="M1162.1-89.3h4.8v4.8h-4.8z"/><path transform="rotate(45.001 1196.063 173.83)" class="st16" d="M1193.7 171.4h4.8v4.8h-4.8z"/><path transform="rotate(45.001 1015.088 -91.386)" class="st16" d="M1013.1-93.4h4v4h-4z"/><path transform="rotate(45.001 963.38 2.105)" class="st16" d="M961.7.4h3.4v3.4h-3.4z"/><path transform="rotate(45.001 1065.425 144.54)" class="st16" d="M1063.7 142.9h3.4v3.4h-3.4z"/><path transform="rotate(45.001 1036.658 26.42)" class="st16" d="M1035 24.7h3.4v3.4h-3.4z"/><path transform="rotate(45.001 923.367 -53.255)" class="st16" d="M921-55.6h4.8v4.8H921z"/><path transform="rotate(45.001 1488.775 128.795)" class="st16" d="M1486.4 126.4h4.8v4.8h-4.8z"/><path transform="rotate(45.001 1483.348 -39.265)" class="st16" d="M1480.9-41.6h4.8v4.8h-4.8z"/><path transform="rotate(45.001 891.886 27.341)" class="st16" d="M890.2 25.7h3.4v3.4h-3.4z"/><path transform="rotate(45.001 1329.942 -65.477)" class="st16" d="M1327.5-67.9h4.8v4.8h-4.8z"/><path transform="rotate(45.001 1307.43 33.647)" class="st16" d="M1306 32.3h2.8v2.8h-2.8z"/><path transform="rotate(45.001 836.436 65.793)" class="st16" d="M834.9 64.3h3.1v3.1h-3.1z"/><path transform="rotate(45.001 2018.605 -150.43)" class="st16" d="M2016.2-152.8h4.8v4.8h-4.8z"/><path transform="rotate(-158.156 1664.145 61.26)" class="st16" d="M1662.6 59.7h3.1v3.1h-3.1z"/><path transform="rotate(-158.156 1737.046 176.667)" class="st16" d="M1735.5 175.1h3.1v3.1h-3.1z"/><path transform="rotate(-158.156 1594.736 30.571)" class="st16" d="M1593.2 29h3.1v3.1h-3.1z"/><path transform="rotate(-119.901 1641.417 104.857)" class="st16" d="M1639.9 103.3h3.1v3.1h-3.1z"/><path transform="rotate(-158.156 1927.02 70.86)" class="st16" d="M1925.5 69.3h3.1v3.1h-3.1z"/><path transform="rotate(-158.156 2016.719 50.639)" class="st16" d="M2015.2 49.1h3.1v3.1h-3.1z"/><path transform="rotate(-158.156 1974.993 84.203)" class="st16" d="M1973.3 82.5h3.4v3.4h-3.4z"/><path transform="rotate(-158.156 1562.771 124.91)" class="st16" d="M1561.1 123.2h3.4v3.4h-3.4z"/><path transform="rotate(-158.156 1845.796 134.99)" class="st16" d="M1844.1 133.3h3.4v3.4h-3.4z"/><path transform="rotate(-158.156 1907.869 133.914)" class="st16" d="M1906.2 132.2h3.4v3.4h-3.4z"/><path transform="rotate(-158.156 1640.682 176.903)" class="st16" d="M1639 175.2h3.4v3.4h-3.4z"/><path transform="rotate(-158.156 1563.885 183.396)" class="st16" d="M1562.2 181.7h3.4v3.4h-3.4z"/><path transform="rotate(-158.156 1696.566 125.816)" class="st16" d="M1694.9 124.1h3.4v3.4h-3.4z"/><path transform="rotate(-158.156 1732.44 68.358)" class="st16" d="M1730.9 66.8h3.1v3.1h-3.1z"/><path transform="rotate(-158.156 1973.446 69.139)" class="st16" d="M1971.9 67.6h3.1v3.1h-3.1z"/><path transform="rotate(-158.156 2007.645 1.559)" class="st16" d="M2006.1 0h3.1v3.1h-3.1z"/><path transform="rotate(-172.613 1904.967 -47.306)" class="st16" d="M1902.6-49.7h4.8v4.8h-4.8z"/><path transform="rotate(-172.613 1580.772 -80.507)" class="st16" d="M1578.4-82.9h4.8v4.8h-4.8z"/><path transform="rotate(-172.613 1543.872 -9.907)" class="st16" d="M1541.5-12.3h4.8v4.8h-4.8z"/><path transform="rotate(-172.613 1434.572 25.593)" class="st16" d="M1432.2 23.2h4.8V28h-4.8z"/><path transform="rotate(-172.613 1728.171 -5.507)" class="st16" d="M1725.8-7.9h4.8v4.8h-4.8z"/><path transform="rotate(-172.613 1595.871 -15.407)" class="st16" d="M1593.5-17.8h4.8v4.8h-4.8z"/><path transform="rotate(-172.613 1919.87 -17.707)" class="st16" d="M1917.5-20.1h4.8v4.8h-4.8z"/><path transform="rotate(-172.613 1387.77 -83.006)" class="st16" d="M1385.4-85.4h4.8v4.8h-4.8z"/><path transform="rotate(-172.613 1802.968 -10.006)" class="st16" d="M1800.6-12.4h4.8v4.8h-4.8z"/><path transform="rotate(-172.613 1611.772 -30.107)" class="st16" d="M1609.4-32.5h4.8v4.8h-4.8z"/><path transform="rotate(-172.613 1920.067 26.294)" class="st16" d="M1917.7 23.9h4.8v4.8h-4.8z"/><path transform="rotate(45.001 1840.232 52.648)" class="st16" d="M1837.8 50.3h4.8v4.8h-4.8z"/><path transform="rotate(45.001 1784.79 80.056)" class="st16" d="M1782.4 77.7h4.8v4.8h-4.8z"/><path transform="rotate(45.001 1938.13 163.71)" class="st16" d="M1935.7 161.3h4.8v4.8h-4.8z"/><path transform="rotate(45.001 1971.501 -68.822)" class="st16" d="M1969.1-71.2h4.8v4.8h-4.8z"/><path transform="rotate(45.001 1956.085 5.545)" class="st16" d="M1953.7 3.2h4.8V8h-4.8z"/><path transform="rotate(45.001 1791.929 -127.934)" class="st16" d="M1790.4-129.5h3.1v3.1h-3.1z"/><path transform="rotate(45.001 1808.96 -65.267)" class="st16" d="M1807.3-66.9h3.4v3.4h-3.4z"/><path transform="rotate(45.001 1753.634 -26.498)" class="st16" d="M1752.1-28h3.1v3.1h-3.1z"/><path transform="rotate(45.001 1860.248 -273.663)" class="st16" d="M1857.8-276h4.8v4.8h-4.8z"/><path transform="rotate(45.001 1804.665 -246.314)" class="st16" d="M1802.3-248.7h4.8v4.8h-4.8z"/><path transform="rotate(45.001 2491.635 -253.58)" class="st16" d="M2489.2-255.9h4.8v4.8h-4.8z"/><path transform="rotate(45.001 2066.846 -249.635)" class="st16" d="M2064.4-252h4.8v4.8h-4.8z"/><path transform="rotate(45.001 2000.721 -275.14)" class="st16" d="M1998.3-277.5h4.8v4.8h-4.8z"/><path transform="rotate(83.258 2233.423 -266.674)" class="st16" d="M2231.9-268.2h3.1v3.1h-3.1z"/><path transform="rotate(45.001 2313.619 -254.186)" class="st16" d="M2311.9-255.9h3.4v3.4h-3.4z"/><path transform="rotate(45.001 2135.546 -268.913)" class="st16" d="M2134-270.4h3.1v3.1h-3.1z"/><path transform="rotate(45.001 1508.019 -245.507)" class="st16" d="M1505.6-247.9h4.8v4.8h-4.8z"/><path transform="rotate(45.001 1432.022 -266.657)" class="st16" d="M1429.6-269h4.8v4.8h-4.8z"/><path transform="rotate(45.001 1373.15 -253.445)" class="st16" d="M1370.7-255.8h4.8v4.8h-4.8z"/><path transform="rotate(45.001 1615.755 -251.414)" class="st16" d="M1614.2-252.9h3.1v3.1h-3.1z"/><path transform="rotate(45.001 2072.926 75.537)" class="st16" d="M2070.5 73.2h4.8V78h-4.8z"/><path transform="rotate(45.001 2294.602 -11.255)" class="st16" d="M2292.2-13.6h4.8v4.8h-4.8z"/><path transform="rotate(45.001 2437.976 -68.588)" class="st16" d="M2436-70.6h4v4h-4z"/><path transform="rotate(45.001 2056.266 -138.963)" class="st16" d="M2054.6-140.6h3.4v3.4h-3.4z"/><path transform="rotate(45.001 2366.928 -44.757)" class="st16" d="M2364.5-47.1h4.8v4.8h-4.8z"/><path transform="rotate(45.001 2475.15 -6.167)" class="st16" d="M2472.7-8.5h4.8v4.8h-4.8z"/><path transform="rotate(45.001 2238.546 150.291)" class="st16" d="M2236.1 147.9h4.8v4.8h-4.8z"/><path transform="rotate(45.001 2088.27 -152.854)" class="st16" d="M2085.9-155.2h4.8v4.8h-4.8z"/><path transform="rotate(45.001 2322.307 -72.098)" class="st16" d="M2319.9-74.5h4.8v4.8h-4.8z"/><path transform="rotate(45.001 2264.979 -122.731)" class="st16" d="M2263-124.7h4v4h-4z"/><path transform="rotate(45.001 2105.609 -119.26)" class="st16" d="M2103.2-121.6h4.8v4.8h-4.8z"/><path transform="rotate(45.001 2185.46 3.583)" class="st16" d="M2183 1.2h4.8V6h-4.8z"/><path transform="rotate(45.001 2184.293 -97.49)" class="st16" d="M2181.9-99.9h4.8v4.8h-4.8z"/><path transform="rotate(45.001 2330.606 -156.412)" class="st16" d="M2328.6-158.4h4v4h-4z"/><path transform="rotate(45.001 2455.155 -152.066)" class="st16" d="M2452.7-154.4h4.8v4.8h-4.8z"/><path transform="rotate(45.001 2145.255 68.365)" class="st16" d="M2142.8 66h4.8v4.8h-4.8z"/><path transform="rotate(45.001 2079.23 42.92)" class="st16" d="M2076.8 40.5h4.8v4.8h-4.8z"/><path transform="rotate(45.001 2445.734 108.554)" class="st16" d="M2443.3 106.2h4.8v4.8h-4.8z"/><path transform="rotate(45.001 2458.724 -22.533)" class="st16" d="M2457.2-24.1h3.1v3.1h-3.1z"/><path transform="rotate(45.001 2274.02 82.524)" class="st16" d="M2272.5 81h3.1v3.1h-3.1z"/><path transform="rotate(45.001 2252.35 -52.29)" class="st16" d="M2250.8-53.8h3.1v3.1h-3.1z"/><path transform="rotate(45.001 2325.726 137.986)" class="st16" d="M2324.2 136.5h3.1v3.1h-3.1z"/><path transform="rotate(83.258 2311.889 51.31)" class="st16" d="M2310.4 49.7h3.1v3.1h-3.1z"/><path transform="rotate(45.001 2176.366 108.165)" class="st16" d="M2174 105.8h4.8v4.8h-4.8z"/><path transform="rotate(45.001 2392.029 63.972)" class="st16" d="M2390.3 62.3h3.4v3.4h-3.4z"/><path transform="rotate(45.001 2135.814 -56.88)" class="st16" d="M2134.1-58.6h3.4v3.4h-3.4z"/><path transform="rotate(45.001 2078.444 -80.12)" class="st16" d="M2076.7-81.8h3.4v3.4h-3.4z"/><path transform="rotate(45.001 2392.525 -108.392)" class="st16" d="M2390.5-110.4h4v4h-4z"/><path transform="rotate(45.001 2340.786 -14.689)" class="st16" d="M2339.1-16.4h3.4v3.4h-3.4z"/><path transform="rotate(45.001 2442.904 127.692)" class="st16" d="M2441.2 126h3.4v3.4h-3.4z"/><path transform="rotate(45.001 2414.135 9.573)" class="st16" d="M2412.4 7.9h3.4v3.4h-3.4z"/><path transform="rotate(45.001 2300.804 -70.161)" class="st16" d="M2298.4-72.5h4.8v4.8h-4.8z"/><path transform="rotate(45.001 2269.393 10.507)" class="st16" d="M2267.7 8.8h3.4v3.4h-3.4z"/><path transform="rotate(45.001 2105.78 8.071)" class="st16" d="M2103.4 5.7h4.8v4.8h-4.8z"/><path transform="rotate(45.001 2214.056 49.046)" class="st16" d="M2212.5 47.5h3.1v3.1h-3.1z"/><path transform="rotate(45.001 2524.193 -15.689)" class="st16" d="M2521.8-18.1h4.8v4.8h-4.8z"/><path transform="rotate(45.001 2498.01 14.238)" class="st16" d="M2496.3 12.6h3.4V16h-3.4z"/><path transform="rotate(45.001 884.01 -282.221)" class="st16" d="M881.6-284.6h4.8v4.8h-4.8z"/><path transform="rotate(45.001 1064.5 -276.95)" class="st16" d="M1062.1-279.3h4.8v4.8h-4.8z"/><path transform="rotate(45.001 774.708 -267.3)" class="st16" d="M772.3-269.7h4.8v4.8h-4.8z"/><path transform="rotate(83.258 901.234 -219.572)" class="st16" d="M899.7-221.1h3.1v3.1h-3.1z"/><path transform="rotate(45.001 1003.402 -261.41)" class="st16" d="M1001.7-263.1h3.4v3.4h-3.4z"/><path transform="rotate(45.001 858.63 -260.39)" class="st16" d="M856.9-262.1h3.4v3.4h-3.4z"/><path transform="rotate(45.001 803.263 -221.779)" class="st16" d="M801.7-223.3h3.1v3.1h-3.1z"/><path transform="rotate(45.001 1221.765 -247.983)" class="st16" d="M1219.4-250.4h4.8v4.8h-4.8z"/><path transform="rotate(45.001 1248.393 -261.151)" class="st16" d="M1246-263.5h4.8v4.8h-4.8z"/><path transform="rotate(45.001 1205.255 -264.449)" class="st16" d="M1203.7-266h3.1v3.1h-3.1z"/><path transform="rotate(45.001 1087.43 -256.617)" class="st16" d="M1085.7-258.3h3.4v3.4h-3.4z"/><path transform="rotate(45.001 1160.608 -232.301)" class="st16" d="M1158.9-234h3.4v3.4h-3.4z"/><path transform="rotate(45.001 1323.896 -217.652)" class="st16" d="M1322.5-219h2.8v2.8h-2.8z"/><path transform="rotate(45.001 1327.435 -162.392)" class="st16" d="M1325-164.8h4.8v4.8h-4.8z"/><path transform="rotate(45.001 1251.438 -183.642)" class="st16" d="M1249-186h4.8v4.8h-4.8z"/><path transform="rotate(45.001 1192.667 -170.43)" class="st16" d="M1190.3-172.8h4.8v4.8h-4.8z"/><path transform="rotate(45.001 1505.299 -197.26)" class="st16" d="M1502.9-199.6h4.8v4.8h-4.8z"/><path transform="rotate(45.001 767.819 -166.326)" class="st16" d="M765.4-168.7h4.8v4.8h-4.8z"/><path transform="rotate(45.001 896.442 -152.385)" class="st16" d="M894.9-153.9h3.1v3.1h-3.1z"/><path transform="rotate(83.258 934.433 -183.512)" class="st16" d="M932.9-185.1h3.1v3.1h-3.1z"/><path transform="rotate(45.001 1014.509 -171.037)" class="st16" d="M1012.8-172.7h3.4v3.4h-3.4z"/><path transform="rotate(45.001 1367.764 -152.35)" class="st16" d="M1365.4-154.7h4.8v4.8h-4.8z"/><path transform="rotate(45.001 1307.432 -217.91)" class="st16" d="M1306-219.3h2.8v2.8h-2.8z"/><path transform="rotate(45.001 836.536 -185.804)" class="st16" d="M835-187.3h3.1v3.1H835z"/><path transform="rotate(-158.156 1664.14 -190.448)" class="st16" d="M1662.6-192h3.1v3.1h-3.1z"/><path transform="rotate(-119.901 1641.37 -146.733)" class="st16" d="M1639.8-148.3h3.1v3.1h-3.1z"/><path transform="rotate(-158.156 1927.145 -180.944)" class="st16" d="M1925.6-182.5h3.1v3.1h-3.1z"/><path transform="rotate(-158.156 2016.937 -201.129)" class="st16" d="M2015.4-202.7h3.1v3.1h-3.1z"/><path transform="rotate(-158.156 1974.872 -167.288)" class="st16" d="M1973.2-169h3.4v3.4h-3.4z"/><path transform="rotate(-158.156 1732.319 -183.133)" class="st16" d="M1730.8-184.7h3.1v3.1h-3.1z"/><path transform="rotate(-158.156 1973.438 -182.553)" class="st16" d="M1971.9-184.1h3.1v3.1h-3.1z"/><path transform="rotate(45.001 1840.291 -199.05)" class="st16" d="M1837.9-201.4h4.8v4.8h-4.8z"/><path transform="rotate(45.001 1784.69 -171.559)" class="st16" d="M1782.3-173.9h4.8v4.8h-4.8z"/><path transform="rotate(45.001 2073.026 -176.119)" class="st16" d="M2070.6-178.5h4.8v4.8h-4.8z"/><path transform="rotate(45.001 2145.356 -183.332)" class="st16" d="M2142.9-185.7h4.8v4.8h-4.8z"/><path transform="rotate(45.001 2079.23 -208.737)" class="st16" d="M2076.8-211.1h4.8v4.8h-4.8z"/><path transform="rotate(45.001 2445.805 -143.073)" class="st16" d="M2443.4-145.4h4.8v4.8h-4.8z"/><path transform="rotate(45.001 2274.08 -169.274)" class="st16" d="M2272.5-170.8h3.1v3.1h-3.1z"/><path transform="rotate(83.258 2311.846 -200.444)" class="st16" d="M2310.3-202h3.1v3.1h-3.1z"/><path transform="rotate(45.001 2176.266 -143.391)" class="st16" d="M2173.9-145.8h4.8v4.8h-4.8z"/><path transform="rotate(45.001 2392.088 -187.825)" class="st16" d="M2390.4-189.5h3.4v3.4h-3.4z"/><path transform="rotate(45.001 2214.014 -202.651)" class="st16" d="M2212.5-204.2h3.1v3.1h-3.1z"/></g><path id="moon_1_" d="M1629.7 246.7c1.5 1.7 2.4 3.9 2.4 6.3 0 5.3-4.3 9.6-9.6 9.6-1.7 0-3.3-.4-4.6-1.2 1.8 2 4.4 3.3 7.3 3.3 5.3 0 9.6-4.3 9.6-9.6-.1-3.5-2.1-6.7-5.1-8.4z" opacity=".8" fill="#fff4cf"/><linearGradient id="SVGID_10_" gradientUnits="userSpaceOnUse" x1="1465.415" y1="196.614" x2="1668.078" y2="193.524" gradientTransform="matrix(.999 .04384 .04384 -.999 6.764 -97.007)"><stop offset="0" stop-color="#f2fafe"/><stop offset=".209" stop-color="#f3c187"/><stop offset=".432" stop-color="#eb8d80"/><stop offset=".465" stop-color="#c77e75"/><stop offset=".512" stop-color="#996b66"/><stop offset=".562" stop-color="#705a59"/><stop offset=".613" stop-color="#504c4e"/><stop offset=".665" stop-color="#364146"/><stop offset=".719" stop-color="#243a41"/><stop offset=".775" stop-color="#19353d"/><stop offset=".84" stop-color="#16343c"/></linearGradient><path d="M1492.4-231.6c-3.8-.2-7.6-.3-11.4-.5l-1.9 1 1.7 1.1c8.6.3 17.3.6 26.1 1 73 3.2 137.7 9.2 177.6 15.5-37.4-7.5-109.3-14.5-192.1-18.1z" fill="url(#SVGID_10_)"/><linearGradient id="SVGID_11_" gradientUnits="userSpaceOnUse" x1="770.609" y1="434.175" x2="1378.955" y2="456.907"><stop offset="0" stop-color="#404f58"/><stop offset=".342" stop-color="#41535d"/><stop offset=".882" stop-color="#445e6d"/><stop offset="1" stop-color="#456171"/></linearGradient><path fill="url(#SVGID_11_)" d="M1387.8 454.2l-.4-.3-7-1.2-9-4.7-2.1-.8 10.5-.7 4.2-2.3 9.1.7 25.6-5.7h-25.1l-18.3-1.6-5.6.7-5.9-.7-18 1.3-23.2-4.6-23.7.7-8.6 2.2-16.8-1.9-6.6-2.6-16.6 1.8-14.2.2-13.5-2.6h-43.4l-11.4-5.4h-67l-13.1-7-45.8 7.6-35.5-7.1-98.3 2.7-55.3-15-39.3 2.4-56.8-5-2.1-1V456h151.8l65.4 5.7 41.8 10.9 122.3-6.4 50.4 8 51.5-1.6 45.1 2.4-15.2-6.3 17.2-6.4 6.9 1.9 6.5-2.9 24.5-1.1 4.5-.9 34.3-.4h23.9l2.3-.4 10.2-.8-3.5-1.5z"/><linearGradient id="SVGID_12_" gradientUnits="userSpaceOnUse" x1="1211.904" y1="163.886" x2="1106.644" y2="424.112"><stop offset=".114" stop-color="#334d5a"/><stop offset="1" stop-color="#384a56"/></linearGradient><path fill="url(#SVGID_12_)" d="M1424.9 480.9l-29.5-4.7-40.5-2.5-27.1-7-21.3-2-48.4 4.2-71.5-14.6-68.6 7-60.4-8.6-52.5 2.3-42.6-4.4-14-7.9-45-3.5h-36.2l-6.7 4-24.6-6.5-21.3-1.8-48.4 4.1-11.7-5v70.1l14.4-7.9 16.7 2 6.5 28.5 43.6-.2 80.8-1.8 97.7 1.5 132-.5 46.1.5 37.8-19.1 37.4 1.6 40.4-10 17.7-8.4 33.6-4.1 47.8.8 23.8-4z"/><linearGradient id="SVGID_13_" gradientUnits="userSpaceOnUse" x1="1790.198" y1="493.116" x2="969.533" y2="537.942"><stop offset="0" stop-color="#303d44"/><stop offset=".564" stop-color="#34424a"/><stop offset=".972" stop-color="#223239"/></linearGradient><path fill="url(#SVGID_13_)" d="M1270 542.9l-39.5-14.6-34.4 1.9-35.6-16.2-60.4-11.3-55.2-10.6-64.6.6-92.4-12.4-33.1 2.6v-.2l-100.2-7.8v135.9h215.7l41.8-.4 99.8-16.7 45.6-3.2 41.3-8 31.2-13.2 27.1-2.6 13.9 1.3 33.4-2 29.8-4.5z"/><path class="st15" d="M1385.1 354.7l-7.1-4H754.6v15.9h410.9l10.4-5.9-.5-2H1378zm-104 22.8H754.6v8.5h526.5l7.5-4.3z"/><defs><path id="SVGID_14_" d="M754.6-290.5h1780v850h-1780z"/></defs><clipPath id="SVGID_15_"><use xlink:href="#SVGID_14_" overflow="visible"/></clipPath><g clip-path="url(#SVGID_15_)"><linearGradient id="SVGID_16_" gradientUnits="userSpaceOnUse" x1="14664.289" y1="579.379" x2="14667.19" y2="544.196" gradientTransform="matrix(-1 0 0 1 16546.832 0)"><stop offset=".264" stop-color="#293942"/><stop offset="1" stop-color="#0f1b21"/></linearGradient><path fill="url(#SVGID_16_)" d="M1998.8 531.5l-7.6 29.9-33.6 11.3-111.5 9.8-36.7-3-29.4-7.4-17.3-6.7-2.5-11.9L1780 490l174.2-25.8 40.2 14.3z"/><linearGradient id="SVGID_17_" gradientUnits="userSpaceOnUse" x1="14669.758" y1="457.273" x2="14668.978" y2="553.271" gradientTransform="matrix(-1 0 0 1 16546.832 0)"><stop offset="0" stop-color="#4e5663"/><stop offset=".272" stop-color="#a6a8ab"/><stop offset=".809" stop-color="#a6a8ab"/><stop offset=".927" stop-color="#cfd0d2"/></linearGradient><path fill="url(#SVGID_17_)" d="M2023.1 440.3l4.8 22.9-2.8 25.7-7.9 26.9-20.2 30.3-29.8 12-39.7 13.8-20-10.1-62.6-20h-19.8l-31.8 11.1-13.1 10.6-9.5 5-11-.9-14.1-31.9-19.3-71.5 5.4-30 12.4-6.5 52.6-3.4 38.8 34.7 159.1-23.8z"/><linearGradient id="SVGID_18_" gradientUnits="userSpaceOnUse" x1="1817.274" y1="-3433.035" x2="1786.508" y2="-3414.224" gradientTransform="rotate(-33.196 8272.935 -1432.848)"><stop offset="0" stop-color="#929497"/><stop offset="1" stop-color="#293942"/></linearGradient><path fill="url(#SVGID_18_)" d="M1771.4 468.7l-5-14.7-2.7-16.9 1.2-9.8-2.2-3.7-2.3 12 2.5 18.9 4.3 16z"/><linearGradient id="SVGID_19_" gradientUnits="userSpaceOnUse" x1="1887.013" y1="-3554.128" x2="1850.559" y2="-3512.332" gradientTransform="rotate(-34.682 8272.951 -1360.586)"><stop offset="0" stop-color="#5b3528"/><stop offset=".17" stop-color="#5b3427"/><stop offset=".206" stop-color="#743a21"/><stop offset=".253" stop-color="#8f411c"/><stop offset=".301" stop-color="#a24517"/><stop offset=".35" stop-color="#ad4815"/><stop offset=".402" stop-color="#b14914"/><stop offset=".572" stop-color="#5b3528"/></linearGradient><path fill="url(#SVGID_19_)" d="M1780.6 465.2l4.5 12.5 8.1 25.5-28.2 6.5-8.6-9.3-7.1-16.9.1-11.2 23.4-8.9z"/><linearGradient id="SVGID_20_" gradientUnits="userSpaceOnUse" x1="2274.602" y1="-4107.488" x2="2235.463" y2="-4063.543" gradientTransform="rotate(-39.843 8273.463 -1132.88)"><stop offset="0" stop-color="#cfd0d2"/><stop offset="1" stop-color="#293942"/></linearGradient><path fill="url(#SVGID_20_)" d="M1747.2 426.9l-.6 11.8.5 12.4 2.2 11.8 3.1 8.6 6.8 19.1 15.5-7.9-7.2-17.3-3.2-7.9-2-9.9-1-12.2 1.4-11.8z"/><linearGradient id="SVGID_21_" gradientUnits="userSpaceOnUse" x1="2259.389" y1="-4088.368" x2="2249.12" y2="-4099.118" gradientTransform="rotate(-39.843 8273.463 -1132.88)"><stop offset=".264" stop-color="#455a65"/><stop offset="1" stop-color="#0f1b21"/></linearGradient><path fill="url(#SVGID_21_)" d="M1762.5 448.9l-14.9 4.1-.4-1.4 15.1-4z"/><linearGradient id="SVGID_22_" gradientUnits="userSpaceOnUse" x1="2266.567" y1="-4098.678" x2="2256.555" y2="-4109.159" gradientTransform="rotate(-39.843 8273.463 -1132.88)"><stop offset=".264" stop-color="#455a65"/><stop offset="1" stop-color="#0f1b21"/></linearGradient><path fill="url(#SVGID_22_)" d="M1761.5 436.2l-14.9 4v-1.5l14.8-3.3z"/><linearGradient id="SVGID_23_" gradientUnits="userSpaceOnUse" x1="3236.263" y1="-5095.248" x2="3225.5" y2="-5106.517" gradientTransform="rotate(-51.406 8271.304 -789.005)"><stop offset=".264" stop-color="#455a65"/><stop offset="1" stop-color="#0f1b21"/></linearGradient><path fill="url(#SVGID_23_)" d="M1764.5 458.6l-15 5.6-.2-1.3 15-5.4z"/><linearGradient id="SVGID_24_" gradientUnits="userSpaceOnUse" x1="1880.294" y1="-3554.217" x2="1853.064" y2="-3522.996" gradientTransform="rotate(-34.682 8272.951 -1360.586)"><stop offset="0" stop-color="#283840"/><stop offset="1" stop-color="#0f1b21"/></linearGradient><path fill="url(#SVGID_24_)" d="M1751.1 477.9l23.6-8.5 7.4 21.2-8.3 13.9-16.1-5.9z"/><linearGradient id="SVGID_25_" gradientUnits="userSpaceOnUse" x1="14616.342" y1="497.561" x2="14673.079" y2="497.561" gradientTransform="matrix(-1 0 0 1 16546.832 0)"><stop offset="0" stop-color="#3b2314"/><stop offset="1" stop-color="#754c28"/></linearGradient><path fill="url(#SVGID_25_)" d="M1926 467.9l3.2 4.4 1.3 5.2-9.5 16.6 3.7 14.5-17.9 18.6-31.1-11.6-1.9-3.8 29.7 7.9 13.4-11.6-3.8-16.1z"/><linearGradient id="SVGID_26_" gradientUnits="userSpaceOnUse" x1="14517.023" y1="450.612" x2="14640.12" y2="450.612" gradientTransform="matrix(-1 0 0 1 16546.832 0)"><stop offset="0" stop-color="#929497"/><stop offset="1" stop-color="#293942"/></linearGradient><path fill="url(#SVGID_26_)" d="M2025.1 437l4.7 14.6-1.9 11.6-6.5-21-26.5-6.5-16.3 2.5-14.2 4.5-16.1 8.4-13.5 9.9-15.3 14.1-5-.7-7.8-.9 25-27.6 20.6-11.6 17.9-5.5 19.8-2.7 20.1 3.8z"/><linearGradient id="SVGID_27_" gradientUnits="userSpaceOnUse" x1="14649.131" y1="518.668" x2="14642.102" y2="465.4" gradientTransform="matrix(-1 0 0 1 16546.832 0)"><stop offset="0" stop-color="#0f1b21"/><stop offset=".17" stop-color="#5b3427"/><stop offset=".182" stop-color="#683827"/><stop offset=".225" stop-color="#924625"/><stop offset=".268" stop-color="#b45124"/><stop offset=".312" stop-color="#cf5a23"/><stop offset=".356" stop-color="#e26023"/><stop offset=".402" stop-color="#ed6422"/><stop offset=".451" stop-color="#f16522"/><stop offset=".778" stop-color="#404041"/></linearGradient><path fill="url(#SVGID_27_)" d="M1926 467.9l3.2 4.4-13.1 21.1 5.2 14.6-15.8 15.8-31.7-12 .5-7.9 5.2-14.7 13.1-21.3 6.9-3.1z"/><linearGradient id="SVGID_28_" gradientUnits="userSpaceOnUse" x1="14521.779" y1="453.045" x2="14650.849" y2="453.045" gradientTransform="matrix(-1 0 0 1 16546.832 0)"><stop offset="0" stop-color="#fff"/><stop offset="1" stop-color="#293942"/></linearGradient><path fill="url(#SVGID_28_)" d="M1974.6 424l-20 3.1-15.7 7.4-14.2 8.5-11 11.6-10.7 12.1-7 12.7 14 2.7 23.6-25.8 9.6-9 16.4-8.8 19.3-6.3 16.7-2 29.5 6.8-22.8-10.6z"/><linearGradient id="SVGID_29_" gradientUnits="userSpaceOnUse" x1="14659.406" y1="498.442" x2="14635.728" y2="473.654" gradientTransform="matrix(-1 0 0 1 16546.832 0)"><stop offset=".264" stop-color="#455a65"/><stop offset="1" stop-color="#0f1b21"/></linearGradient><path fill="url(#SVGID_29_)" d="M1921.4 475l-24.8-3.5-11.6 19.1 4.3 9.2 17.6-4.5z"/><path d="M1993.8 430.4l1.8-.2-21.2-6.2-1.4.2zm-16.3 2.2l1.4-.4-24.3-5.1-1.1.6zm-19.1 6.6l1-.7-19.6-4.3-1.2.5zm-16.4 9.1l1.2-1-18.5-4.3-.7 1zm-9.7 9.4l1.3-1.4-18.5-3.2-1 1.1z" fill="#293942"/><g id="left_arm_3_"><linearGradient id="SVGID_30_" gradientUnits="userSpaceOnUse" x1="14786.423" y1="1239.925" x2="14662.33" y2="1315.796" gradientTransform="scale(-1 1) rotate(-6.344 -497.18 149576.22)"><stop offset="0" stop-color="#f2c086"/><stop offset=".091" stop-color="#bbb3ae"/><stop offset=".316" stop-color="#caccce"/><stop offset=".75" stop-color="#9ea0a3"/></linearGradient><path fill="url(#SVGID_30_)" d="M1745 431.5l-.9-3.8-15.7 6.8-10.2 10.3-8.7 19.4-2.6 37.2 2.1 22.4 11.5 20.4 17 13.5 27.2 12.2 31.6-2.7 31.7-12.9 29.3-22.8-24.5-21-14.7-16.3-32.6-6.2-13.9 1.8-14.3 3.8-5.4-16.4-2.6-10.3-2.2-15.8-.3-16.2z"/><linearGradient id="SVGID_31_" gradientUnits="userSpaceOnUse" x1="14732.171" y1="-56.992" x2="14785.733" y2="-56.992" gradientTransform="matrix(-.9968 .08036 .08036 .9968 16501.852 -631.283)"><stop offset="0" stop-color="#794d3a"/><stop offset="1" stop-color="#36444c"/></linearGradient><path fill="url(#SVGID_31_)" d="M1811.6 492.8l-38.5 15.2-14.7-12.7.4-4.2 52.9-1.9z"/><linearGradient id="SVGID_32_" gradientUnits="userSpaceOnUse" x1="14755.667" y1="-67.136" x2="14782.35" y2="-45.974" gradientTransform="matrix(-.9968 .08036 .08036 .9968 16501.852 -631.283)"><stop offset="0" stop-color="#5b3427"/><stop offset=".062" stop-color="#663827"/><stop offset=".171" stop-color="#844126"/><stop offset=".314" stop-color="#b45124"/><stop offset=".474" stop-color="#f16522"/><stop offset=".668" stop-color="#f28f3f"/><stop offset=".888" stop-color="#ed693c"/><stop offset="1" stop-color="#e83e39"/></linearGradient><path fill="url(#SVGID_32_)" d="M1795.3 479.9l-36.5 11.2 14.5 12.7 38.4-14.6z"/><linearGradient id="SVGID_33_" gradientUnits="userSpaceOnUse" x1="16055.239" y1="443.508" x2="16017.841" y2="457.693" gradientTransform="matrix(-.8525 -.00448 -.00616 1.1701 15395.288 3.69)"><stop offset="0" stop-color="#ce9179"/><stop offset=".643" stop-color="#929497"/><stop offset="1" stop-color="#293942"/></linearGradient><path fill="url(#SVGID_33_)" d="M1744.1 427.7l-16.6 13.8-5.4 9.6-1.9 3.3-2.1 7.3-6.5 23.6-4.2 9.7-2.1-1.1 2.6-23.9 8.4-22.9 13.3-16.2z"/><linearGradient id="SVGID_34_" gradientUnits="userSpaceOnUse" x1="17338.209" y1="443.509" x2="17298.707" y2="458.492" gradientTransform="matrix(-.7379 -.00388 -.00616 1.1701 14501.656 -1.01)"><stop offset="0" stop-color="#f2c086"/><stop offset=".081" stop-color="#f3a98c"/><stop offset=".184" stop-color="#d37a6d"/><stop offset=".466" stop-color="#cfd0d2"/><stop offset=".777" stop-color="#ccd1d0"/></linearGradient><path fill="url(#SVGID_34_)" d="M1739.8 428.7l-14 11.5-5.7 9.1-4.1 10-6.5 24-4.2 10.6-1.2-3 3.3-20.4 6.9-21.4 7.7-11.6 7.6-6.6z"/><linearGradient id="SVGID_35_" gradientUnits="userSpaceOnUse" x1="14703.936" y1="523.442" x2="14759.711" y2="523.442" gradientTransform="matrix(-1 0 0 1 16546.832 0)"><stop offset="0" stop-color="#4e5663"/><stop offset="1" stop-color="#a6a8ab"/></linearGradient><path fill="url(#SVGID_35_)" d="M1842.9 542.9l-19.4-15.7-23.6-29.7-12.9 4.9 25 29.1 22.5 17.9z"/></g><g id="right_arm_3_"><linearGradient id="SVGID_36_" gradientUnits="userSpaceOnUse" x1="14547.665" y1="543.535" x2="14700.648" y2="441.193" gradientTransform="matrix(-1 0 0 1 16546.832 0)"><stop offset="0" stop-color="#f2c086"/><stop offset=".091" stop-color="#947f7e"/><stop offset=".316" stop-color="#cfd0d2"/><stop offset=".717" stop-color="#a6a8ab"/><stop offset=".746" stop-color="#aaacaf"/><stop offset=".869" stop-color="#b5b7b9"/><stop offset="1" stop-color="#b9bbbd"/></linearGradient><path d="M2023.3 484.5l-7.4 20-21.8 29.1-32.5 16.9-40.8 17.8-54.3-6.7-42.8-34.5-22.6-28.9-18.9-14.4 12.2-4.3 32.4-10.9 22.8 6.5 63.6 11.2 5.8-11.6 17.8-19.4s24.4-13.9 33.1-15.9c8.5-2 30-2.3 30-2.3l23.7 21.3-.3 26.1z" fill="url(#SVGID_36_)"/><linearGradient id="SVGID_37_" gradientUnits="userSpaceOnUse" x1="14697.411" y1="492.695" x2="14764.988" y2="492.695" gradientTransform="matrix(-1 0 0 1 16546.832 0)"><stop offset="0" stop-color="#293942"/><stop offset="1" stop-color="#0f1b21"/></linearGradient><path d="M1849.4 475.1s-10.7 5.3-19.8 17.6c-7.7 10.5-12.5 26.8-12.5 26.8l-17.3-21.9-18-13.5 20.2-16 23.8-2.1 23.6 9.1z" fill="url(#SVGID_37_)"/><linearGradient id="SVGID_38_" gradientUnits="userSpaceOnUse" x1="1914.528" y1="4297.257" x2="1967.209" y2="4297.257" gradientTransform="rotate(33.322 8273.487 2290.865)"><stop offset="0" stop-color="#3b2314"/><stop offset="1" stop-color="#754c28"/></linearGradient><path fill="url(#SVGID_38_)" d="M1866.1 475l-16.6 12.1-.1 4.5 45.3 13.3 15.3-14v-4.8z"/><linearGradient id="SVGID_39_" gradientUnits="userSpaceOnUse" x1="1878.516" y1="4228.242" x2="1922.023" y2="4248.98" gradientTransform="rotate(32.757 8271.825 2328.923)"><stop offset="0" stop-color="#5b3427"/><stop offset=".164" stop-color="#914625"/><stop offset=".341" stop-color="#c55723"/><stop offset=".474" stop-color="#e56122"/><stop offset=".548" stop-color="#f16522"/><stop offset=".701" stop-color="#f28f3f"/><stop offset=".888" stop-color="#ed693c"/><stop offset="1" stop-color="#e83e39"/></linearGradient><path fill="url(#SVGID_39_)" d="M1866.1 475l-16.6 12.1 45.2 12.8 15.3-13.8z"/></g><g id="neck_tube_3_"><linearGradient id="SVGID_40_" gradientUnits="userSpaceOnUse" x1="14809.48" y1="419.772" x2="14532.669" y2="433.476" gradientTransform="matrix(-1 0 0 1 16546.832 0)"><stop offset=".264" stop-color="#293942"/><stop offset="1" stop-color="#29373e"/></linearGradient><path fill="url(#SVGID_40_)" d="M1733.8 410.1l9.4 14 1.8 7.4 3.8 7.2 4.4 4.7 1.8 7.7 13.1 9.3 22.7-1 35.1 6.5 14.2 4.6 63.6-10 32.7-16.4 29.4-13.2 24-3.8 20.9 3.5 10.6 4.6-8.4-11.1 5-17.1-7-4-6.2-15.6-2.1 10.6-41.3 10.3-160.7 6-35.9-4.2z"/><linearGradient id="SVGID_41_" gradientUnits="userSpaceOnUse" x1="14648.305" y1="428.989" x2="14747.734" y2="428.989" gradientTransform="matrix(-1 0 0 1 16546.832 0)"><stop offset="0" stop-color="#293942"/><stop offset="1" stop-color="#0f1b21"/></linearGradient><path fill="url(#SVGID_41_)" d="M1799.1 425.3l19 3.7 33.3 4.1 22-.7 18.3-4.1 6.8-3.4-13.6 1-9.7 2.9-27.5-.3-27.1-1.4z"/><linearGradient id="SVGID_42_" gradientUnits="userSpaceOnUse" x1="14579.623" y1="436.621" x2="14693.982" y2="436.621" gradientTransform="matrix(-1 0 0 1 16546.832 0)"><stop offset="0" stop-color="#293942"/><stop offset="1" stop-color="#162329"/></linearGradient><path fill="url(#SVGID_42_)" d="M1929.6 426.1l-37.3 3.3-27.3 9.4-12.2 8.3 13-.3 24.9-6.3 14.1.3 43.6-3.8 18.8-7.7z"/><linearGradient id="SVGID_43_" gradientUnits="userSpaceOnUse" x1="14634.038" y1="457.966" x2="14745.854" y2="457.966" gradientTransform="matrix(-1 0 0 1 16546.832 0)"><stop offset="0" stop-color="#293942"/><stop offset="1" stop-color="#0f1b21"/></linearGradient><path fill="url(#SVGID_43_)" d="M1912.8 456l-23.6 1.6-19.4-1.1-22.4 2.7-46.4-9.1 16.7 7.5 25.9 8.2 60.1-5.3z"/><linearGradient id="SVGID_44_" gradientUnits="userSpaceOnUse" x1="14745.522" y1="432.639" x2="14795.734" y2="432.639" gradientTransform="matrix(-1 0 0 1 16546.832 0)"><stop offset="0" stop-color="#293942"/><stop offset="1" stop-color="#0f1b21"/></linearGradient><path fill="url(#SVGID_44_)" d="M1751.1 421.2l33.7 14 16.5 8.8-22.1-6.9-12.2-5z"/></g><g id="space_yeti"><path class="st54" d="M1715.5 152.5l82-16.8 107.3 30L1973 221l-9.4 75.5-56.4 27.2-21.5 55-32.1 2.5-70-.7-51.8-9-1.9-.3c-22.6-24.3-42.6-72.2-42-120 .2-25.7 2.4-45.9 11.5-66.6l16.1-32.1z"/><linearGradient id="SVGID_45_" gradientUnits="userSpaceOnUse" x1="14788.498" y1="283.219" x2="14804.494" y2="283.219" gradientTransform="matrix(-1 0 0 1 16546.832 0)"><stop offset=".339" stop-color="#0d1d24"/><stop offset=".757" stop-color="#322e2f"/></linearGradient><path fill="url(#SVGID_45_)" d="M1758.3 280.8v8.1l-15.6-3.2-.3-8.1z"/><linearGradient id="SVGID_46_" gradientUnits="userSpaceOnUse" x1="296.114" y1="189.319" x2="357.031" y2="189.319" gradientTransform="matrix(1 .00988 -.00988 1 1429.07 -73.28)"><stop offset="0" stop-color="#4e5663"/><stop offset=".582" stop-color="#0d1c21"/></linearGradient><path d="M1745.7 74.6c.3-7.3-4.6-7.3-9.2-.1-5.1 8-10.3 20.9-11.7 27.9-5.4 26.1 4.5 48.6 30.7 66.6.1 0 .1.1.1.1l.1.1c1.7 1.2 9.4-7 17-18.1 7.7-11.3 12.5-21.3 10.8-22.5-.1-.1-.2-.1-.3-.1-18.9-13.2-38.8-30.4-37.5-53.9z" fill="url(#SVGID_46_)"/><linearGradient id="SVGID_47_" gradientUnits="userSpaceOnUse" x1="14523.353" y1="479.131" x2="14816.778" y2="479.131" gradientTransform="matrix(-1 -.00988 -.00988 1 16548.248 76.16)"><stop offset="0" stop-color="#c9a170"/><stop offset=".095" stop-color="#b2675c"/><stop offset=".356" stop-color="#273d44"/><stop offset=".469" stop-color="#3a484e"/><stop offset=".623" stop-color="#4d5458"/><stop offset=".782" stop-color="#585b5e"/><stop offset=".951" stop-color="#5c5d60"/></linearGradient><path d="M2020.3 397.4l-.1 11.6c-.1 9.5-65.8 16.5-146.9 15.7-81-.8-146.7-9.1-146.5-18.6l.1-11.6 293.4 2.9z" fill="url(#SVGID_47_)"/><linearGradient id="SVGID_48_" gradientUnits="userSpaceOnUse" x1="14826.441" y1="464.649" x2="14519.072" y2="464.649" gradientTransform="matrix(-1 -.00988 -.00988 1 16548.248 76.16)"><stop offset="0" stop-color="#929592"/><stop offset=".389" stop-color="#7b797a"/><stop offset="1" stop-color="#273d44"/></linearGradient><path d="M1726.9 394.4c-.1 9.5 65.6 17.8 146.5 18.6 81 .9 146.8-6.2 146.9-15.7.1-9.5-65.6-17.8-146.5-18.6s-146.7 6.3-146.9 15.7z" fill="url(#SVGID_48_)"/><linearGradient id="SVGID_49_" gradientUnits="userSpaceOnUse" x1="14763.041" y1="321.575" x2="14839.962" y2="335.312" gradientTransform="matrix(-1 -.00988 -.00988 1 16548.248 76.16)"><stop offset="0" stop-color="#0f1b21"/><stop offset="1" stop-color="#293942"/></linearGradient><path fill="url(#SVGID_49_)" d="M1729.6 371.1l-4.7-48.3 41.1-31.3-1.9-38.8v-6.2l-33.2-26-19.1-20.5-9.9-17.1-1.7-3.8 2.6-10.2 20.6-27.9 55.1-47.9 84.9-20.8 72.7 33.3 88 73.4-3.5 86.4-43.2 89.2-71 42.1-73.8 5.6z"/><linearGradient id="SVGID_50_" gradientUnits="userSpaceOnUse" x1="14527.234" y1="460.252" x2="14804.892" y2="460.252" gradientTransform="matrix(-1 -.00988 -.00988 1 16548.248 76.16)"><stop offset="0" stop-color="#f2c086"/><stop offset=".091" stop-color="#d37a6d"/><stop offset=".316" stop-color="#cfd0d2"/><stop offset=".96" stop-color="#a6a8ab"/><stop offset=".964" stop-color="#b5ada3"/><stop offset=".972" stop-color="#d0b596"/><stop offset=".981" stop-color="#e3bb8d"/><stop offset=".99" stop-color="#eebf87"/><stop offset="1" stop-color="#f2c085"/></linearGradient><path d="M2012.4 377.7l-.1 17c-.1 7.3-61.6 12.5-137.5 11.8-75.9-.7-137.4-7.2-137.3-14.5l.1-17 23.8 3.6 23 2.7 228-3.6z" fill="url(#SVGID_50_)"/><path d="M1944.3 364c41.5 3.2 68.1 7.7 68 12.5-.1 4.8-26.7 8.7-68 10.9V364z" fill="#273d44"/><linearGradient id="SVGID_51_" gradientUnits="userSpaceOnUse" x1="14522.352" y1="421.211" x2="14804.866" y2="421.211" gradientTransform="matrix(-1 -.00988 -.00988 1 16548.248 76.16)"><stop offset="0" stop-color="#f2c086"/><stop offset=".091" stop-color="#c68269"/><stop offset=".316" stop-color="#cfd0d2"/><stop offset=".967" stop-color="#a6a8ab"/></linearGradient><path d="M1785.7 388.2l100.3-5.4 9.2-23.9 14-36.5 27.6-13.5 31.4-11.7 49.1 35.2-10.8 16.6s-17.9 18.4-24.4 24.6l-17.9 4.4-15.3 3.6-3.5 6c48.9-2.4 66.8-7.4 66.9-10.8l-.1 18.4c-.1 7.3-61.6 14.3-137.5 13.5-75.9-.8-137.4-6.5-137.3-13.8l.1-19.4c.2.1 47.9 11.9 48.2 12.7z" fill="url(#SVGID_51_)"/><linearGradient id="SVGID_52_" gradientUnits="userSpaceOnUse" x1="14513.25" y1="148.069" x2="14651.767" y2="247.204" gradientTransform="matrix(-1 -.00988 -.00988 1 16548.248 76.16)"><stop offset="0" stop-color="#f2c086"/><stop offset=".081" stop-color="#f3a98c"/><stop offset=".184" stop-color="#a79189"/><stop offset=".668" stop-color="#bdbfc1"/><stop offset=".846" stop-color="#ccd1d0"/><stop offset="1" stop-color="#a6a8ab"/></linearGradient><path d="M1983.8 208.5l-163.9-91.6-69.6-2.5c15.5-35.6 65.6-55.7 122.4-52.6 96.1 5.3 174.9 87.9 174 184.3-.1 19.3-62.9-37.6-62.9-37.6z" fill="url(#SVGID_52_)"/><linearGradient id="SVGID_53_" gradientUnits="userSpaceOnUse" x1="14498.943" y1="186.996" x2="14564.395" y2="186.996" gradientTransform="matrix(-1 -.00988 -.00988 1 16548.248 76.16)"><stop offset="0" stop-color="#6c6f71"/><stop offset=".427" stop-color="#4e5663"/><stop offset="1" stop-color="#0d1c21"/></linearGradient><path d="M2024.7 71.9c.1-6.4 4.9-7.3 9.7.1 5.9 8.7 10.4 22.3 11.7 29.6 5.2 27.9-5.8 51.2-34 69.8-.1 0-1.3.9-1.4.9-1.9 1.2-11.5-7-19.4-19-8-12.1-10.9-23.3-9.1-24.4.1-.1 1.1-.9 1.2-.9 20.6-13.4 40.7-31.1 41.3-56.1z" fill="url(#SVGID_53_)"/><linearGradient id="SVGID_54_" gradientUnits="userSpaceOnUse" x1="14530.951" y1="429.025" x2="14594.785" y2="429.025" gradientTransform="matrix(-1 -.00988 -.00988 1 16548.248 76.16)"><stop offset=".416" stop-color="#4e5663"/><stop offset=".668" stop-color="#273d44"/><stop offset="1" stop-color="#273d44"/></linearGradient><path d="M2013.4 339s-5.2 30.2-5.8 33.5-.7 3.2-2.7 4.1c-2.4 1-8.3 2.1-14.3 2.9-11.8 1.8-41.6 4.1-41.6 4.1v-2.3s25.9-7.4 37.1-14.6c15.7-10.3 27.3-27.7 27.3-27.7z" fill="url(#SVGID_54_)"/><linearGradient id="SVGID_55_" gradientUnits="userSpaceOnUse" x1="14796.238" y1="159.955" x2="14711.101" y2="297.737" gradientTransform="matrix(-1 0 0 1 16546.832 0)"><stop offset="0" stop-color="#273d44"/><stop offset=".205" stop-color="#be918a"/><stop offset=".373" stop-color="#c7c9cb"/><stop offset=".687" stop-color="#ccd1d0"/></linearGradient><path d="M1772.9 176.9l-17-5.2-21.3 6.9 15.8 12.2-19.7 3.6-9.5 11.3 16 7.2 6 7.2s8.8 47.2 9.7 73.1c.9 25.9-2 84.1-2 84.1l31.2 4.9h68.4l32-3.6 20.7-61.5L1926 306s7.6-51.1 7.1-57.6-9.7-25.9-11.4-28.4c-2-3-17-14.3-17-14.3s-27.9-17-37.6-20.9-17.4-4.6-17.4-4.6l-66.8-19.1-10 15.8z" fill="url(#SVGID_55_)"/><radialGradient id="SVGID_56_" cx="14710.974" cy="328.187" r="116.297" gradientTransform="matrix(-.9991 -.00987 -.00987 .9991 16537.59 76.427)" gradientUnits="userSpaceOnUse"><stop offset="0" stop-color="#0f1b21" stop-opacity="0"/><stop offset=".676" stop-color="#0f1b21" stop-opacity=".651"/><stop offset=".758" stop-color="#19272e" stop-opacity=".74"/><stop offset=".886" stop-color="#24343b" stop-opacity=".878"/><stop offset="1" stop-color="#283840"/></radialGradient><path d="M1925.1 312.2s8.7-57.3 8-63.8c-.9-6.4-9.1-25.1-11.4-28.4-2.3-3.4-17-14.3-17-14.3s-28.6-17.3-37.6-20.9c-9-3.6-39.5-10.5-39.5-10.5l-42.6-2-12.1 4.8s-12.5-1.9-18-1.9-20.4 3.6-20.4 3.6l15.8 12.2-19.7 3.6-9.5 11.3 16 7.2 6 7.2 1.9 11.5-14-10.9-19.1-20.5-10-17.1-1.1-2.4 9.4-22.8 34.2-17.7 38.8-3.9 23.7 1.1 21.1 1.7 34.5 10.5 102.3 40.8 3.8 29.6-9 78-34.5 14z" fill="url(#SVGID_56_)"/><g class="st2"><path class="st68" d="M1808.3 360l-4.7 3.8-5.9-9.8-.6.6 5.9 14.1 5.6-3 7 6.1 12.6-5.5 3.4 4.3 12.8-18.3-11.1 9.9-3.8-2.9-13.3 6.5z"/></g><linearGradient id="SVGID_57_" gradientUnits="userSpaceOnUse" x1="14653.514" y1="94.926" x2="14746.193" y2="161.256" gradientTransform="matrix(-1 -.00988 -.00988 1 16548.248 76.16)"><stop offset="0" stop-color="#f2c086"/><stop offset="1" stop-color="#f1f1f2"/></linearGradient><path d="M1844 65.7l-32.5 8-20 11.4-28.4 29.9-12.7-.4C1765.9 79 1816 58.9 1872.8 62c1.5.1 3 .1 4.5.3l-33.3 3.4z" fill="url(#SVGID_57_)"/><g class="st5"><path class="st70" d="M1779.9 304c-3.9 0-7.4.7-10 1.8-.1 0-.3.1-.4.1-3.8-3.2-6.3-9.2-6.3-16 0-10.3 5.6-18.6 12.5-18.6s12.5 8.3 12.5 18.6c0 5.9-1.9 11.1-4.6 14.5-1.3-.2-2.5-.4-3.7-.4z"/><linearGradient id="SVGID_58_" gradientUnits="userSpaceOnUse" x1="14761.303" y1="289.191" x2="14775.098" y2="289.191" gradientTransform="matrix(-1 0 0 1 16546.832 0)"><stop offset="0" stop-color="#293942"/><stop offset="1" stop-color="#0f1b21"/></linearGradient><ellipse cx="1778.6" cy="289.2" rx="7" ry="11.3" fill="url(#SVGID_58_)"/><ellipse class="st70" cx="1781.2" cy="280.8" rx="2.5" ry="4.3"/></g><g class="st2"><path class="st70" d="M1854 306.3c-2.2 0-4.3.1-6.3.3-3.3-4.2-5.4-10.2-5.4-16.8 0-12.6 7.4-22.9 16.6-22.9 9.2 0 16.6 10.3 16.6 22.9 0 7.7-2.9 14.6-7.1 18.7-4-1.4-9-2.2-14.4-2.2z"/><linearGradient id="SVGID_59_" gradientUnits="userSpaceOnUse" x1="14673.964" y1="289.191" x2="14691.881" y2="289.191" gradientTransform="matrix(-1 0 0 1 16546.832 0)"><stop offset="0" stop-color="#293942"/><stop offset="1" stop-color="#0f1b21"/></linearGradient><ellipse cx="1863.9" cy="289.2" rx="9" ry="13.2" fill="url(#SVGID_59_)"/><ellipse class="st70" cx="1868" cy="279.8" rx="3.3" ry="5"/></g><path class="st68" d="M1856.5 248.6c-6.4.9-12.2 3.3-16.6 6.7 2.1-7.1 8-12.6 15.6-13.6 7.5-1.1 14.7 2.7 18.7 8.8-5.1-2-11.2-2.8-17.7-1.9z"/><linearGradient id="SVGID_60_" gradientUnits="userSpaceOnUse" x1="14758.794" y1="256.864" x2="14786.368" y2="256.864" gradientTransform="matrix(-1 0 0 1 16546.832 0)"><stop offset="0" stop-color="#a0a2a4"/><stop offset="1" stop-color="#9d867b"/></linearGradient><path d="M1775.3 256.6c-5.2-1.4-10.4-1.1-14.8.6 4.2-5.8 10.5-8.8 16.6-7.3 6.1 1.5 10.2 7.4 10.9 14.5-3.1-3.7-7.5-6.6-12.7-7.8z" fill="url(#SVGID_60_)"/><path d="M1837.3 340.4c.9-.3-14.4 0-38.5-4.5 0 0 .1-1.9-.1-4.1-.1-1.3-.4-2.7-1.1-3.8 0 0-2.1 8.1-4.3 9.5 0 0 4.6 4.5 16.3 6.5 0 0-6.4-2.9-9.1-4.9.3.2 26.7 4.8 36.8 1.3z" opacity=".6" fill="#4e4d50"/><path class="st75" d="M1766.9 378.3l-7.3-1.1-8.7-1.7s1.2-20.8 1.8-46.3c.2 1.9.6 3.8.9 5.6 2.8 19.6 7.1 36.1 13.3 43.5z"/><radialGradient id="SVGID_61_" cx="14695.92" cy="262.238" r="98.27" gradientTransform="matrix(-.9991 0 0 1.413 16536.174 -77.203)" gradientUnits="userSpaceOnUse"><stop offset="0" stop-color="#e6e7e8"/><stop offset=".17" stop-color="#e3e4e5"/><stop offset=".316" stop-color="#d8dbdc"/><stop offset=".454" stop-color="#c6cbcd"/><stop offset=".586" stop-color="#adb5b7"/><stop offset=".714" stop-color="#8d989c"/><stop offset=".84" stop-color="#66757a"/><stop offset=".961" stop-color="#384c52"/><stop offset="1" stop-color="#273d44"/></radialGradient><path d="M1892.1 326.1l10.7-25.5 6.4-29.8 2.5-26.9-7.9-21.5-7.7-11.3-14-10.9-14-9.4-18.8-10.8s2.4.3 5.5 1.1c1.9.4 4.1 1.2 6 1.7 5.6 1.5 10.5 3.9 10.5 3.9l9.7 5.2 23.4 13.6s15.6 11.7 17 14.3 10.5 20.6 11.4 28.4c.9 7.9-7.1 57.6-7.1 57.6l-22.9 10.9-20.4 60.3-20.6 2.9-17.1.7 24.9-14.6 22.5-39.9z" fill="url(#SVGID_61_)"/><path class="st75" d="M1802.2 185.2l-15.7 8.3-21.2 16.6 1.3-18.2 3.2-14.4 3.4-4.3 31.4 8.5 3.7 1.6z"/><linearGradient id="SVGID_62_" gradientUnits="userSpaceOnUse" x1="14788.432" y1="245.68" x2="14712.857" y2="259.978" gradientTransform="matrix(-1 -.00988 -.00988 1 16548.248 76.16)"><stop offset="0" stop-color="#f2c086"/><stop offset=".081" stop-color="#f3a98c"/><stop offset=".184" stop-color="#df9283"/><stop offset=".466" stop-color="#cfd0d2"/></linearGradient><path d="M1800.6 184s-11.5 2.7-17.4 5.9c-6 3.2-17.6 14.3-17.6 14.3s1.1-17.9 2.3-21.5c1.5-4.3 3.6-11.4 9-17.5 2-2.2 9.7-9.4 9.7-9.4s23.2 3.9 28.2 4.5c7.9 1.1 34.8 19.9 34.8 19.9" fill="url(#SVGID_62_)"/><g class="st5"><linearGradient id="SVGID_63_" gradientUnits="userSpaceOnUse" x1="14792.329" y1="295.929" x2="14622.094" y2="295.929" gradientTransform="matrix(-1 0 0 1 16546.832 0)"><stop offset="0" stop-color="#e6968b"/><stop offset=".466" stop-color="#a4a7a9"/><stop offset=".709" stop-color="#a8acad"/><stop offset=".976" stop-color="#293942"/></linearGradient><path d="M1793 283.6s2.4.8 3.9 2.1l4.2 2.7 8-2.2c.7-.1 1.4-.3 2.2-.3 3.9 0 9 2.9 9 2.9l2.9 16.4s1.5 5.4 4.3 8.6c2.8 3.2 7.6 4.3 7.6 4.3l23.2 3.2s11.5-.3 17.6-.9c6.1-.7 12.2-3.4 13.3-7 1.2-3.6 5.6-21.6 5.6-21.6l1.2-7.9 3.5.1 28.6 5.3 1.4-8.3-21.8-4.3s-25.1-4.3-39.8-5.4c-38.2-3.1-48.4 7.4-48.4 7.4s-4.2-.7-8.1-.7-8.4 1.5-8.4 1.5-13.1-4.3-19.4-5c-6.3-.7-18.1-.1-18.1-.1l-10.4 1.8-3.6.9.7 7.7c4.4-2.8 14.9-4.4 14.9-4.4s9.5-.1 15.3.8c6.1.6 10.6 2.4 10.6 2.4zm34.4 0c.6-1.2 7.7-2.8 7.7-2.8s16.3-3.9 27.9-3.5c11.7.3 21.8 3.8 21.8 3.8s3.2 1.4 3.2 4.8c.1 3.3-5.1 21.3-5.6 23.4-.9 3-6.2 4.2-6.2 4.2l-17.4 1.1s-22.1-2.2-25.2-4.4c-3.1-2.1-4.3-8-4.8-12.3-.4-4.5-1.8-13.1-1.4-14.3z" opacity=".39" fill="url(#SVGID_63_)"/><linearGradient id="SVGID_64_" gradientUnits="userSpaceOnUse" x1="14798.341" y1="318.024" x2="14728.975" y2="296.361" gradientTransform="matrix(-1 0 0 1 16546.832 0)"><stop offset="0" stop-color="#e6968b"/><stop offset=".466" stop-color="#a4a7a9"/><stop offset=".709" stop-color="#a8acad"/><stop offset=".976" stop-color="#293942"/></linearGradient><path d="M1752.9 305.3c.7.9 5.6 2.9 6.3 3.2 5.8 3.4 25.9 6 31.7.1.1-.1 5.4-4.3 5.5-4.4l-3.3 11.2c-2.5.6-10 1.7-10 1.7s-7.2.7-10.9.3c-3-.1-15.7-2.9-19.6-4.3l.3-7.8z" opacity=".39" fill="url(#SVGID_64_)"/></g><linearGradient id="SVGID_65_" gradientUnits="userSpaceOnUse" x1="14622.64" y1="120.322" x2="14813.866" y2="120.322" gradientTransform="scale(-1 1) rotate(1.411 -543.655 -671877.486)"><stop offset=".339" stop-color="#0d1d24"/><stop offset=".757" stop-color="#322e2f"/></linearGradient><path d="M1738.9 276.3c-.9 1.1 1.4 5.8 1.4 5.8l2.9 4s2.9 12.1 3.9 14.5c1 2.5 3.2 7.1 5.6 9.1 1.7 1.3 12.8 4.2 16.6 4.4 3.8.2 10.9-.3 10.9-.3s8.8-.9 11.8-3.4c2.9-2.5 3.8-4.5 5-7.4 1.2-2.9 4.6-18 4.6-18s2.8-2.4 6.7-2.4c3.9 0 9 2.9 9 2.9l4.2 16.6s.7 5.9 3.4 9c2.8 3.1 4.4 3.4 8.5 4.6 4 1.1 13.1 2.2 20.2 2.2s12.8-.6 17.6-.9 12.4-3.3 14.3-10.2c1-3.6 4-11.7 4.8-18.4.4-4.2 1.2-7.9 1.2-7.9l3.5.1 33.7 6 1.1-8.1s-17-3.5-24.1-4.5c-8.5-1.2-14.2-2.4-19.1-3.2-7.6-1.4-13.8-3.2-22.8-3.9-38.2-3.1-45.9 8.7-45.9 8.7s-6.4-1.4-10.3-1.4-7.6 1.9-7.6 1.9-9.4-4.3-15.6-5.2c-8.1-1.2-15.3-1.2-22.8-.7-7.4.6-18.4 4-18.4 4s-3.4.8-4.3 2.1zm85.6 3.9c.6-1.2 5.3-3.3 8.4-4 3-.7 13.9-2.7 25.7-2.2 11.7.3 21.8 3.8 21.8 3.8s2.5.9 2.4 4.3c-.3 7.4-3.6 19.8-4.3 21.8-2 5.6-8.7 6.3-8.7 6.3l-15.4.9s-18.9.1-22.7-2.7c-3-2.1-4.2-9.7-5.3-14.3-1.1-4.2-2.7-12-1.9-13.9zm-75.2 6.9c-.9-3.6-1.7-5.6 1.7-7.3 3.2-1.7 8.1-2.7 13.7-3.2 5.1-.4 9.2-.6 15 .3 6 .9 10.3 3.2 10.3 3.2s4.9 1.5 5.2 4.1c.3 2.5-3.2 17.1-7.1 20.9-6 5.8-26 3.3-31.7-.1-4.3-2.4-6-12.7-7.1-17.9z" fill="url(#SVGID_65_)"/><path class="st54" d="M1715.5 152.5l82-16.8 107.3 30L1973 221l-9.4 75.5-56.4 27.2-21.5 55-32.1 2.5-70-.7-51.8-9-1.9-.3c-22.6-24.3-42.6-72.2-42-120 .2-25.7 2.4-45.9 11.5-66.6l16.1-32.1z"/><linearGradient id="SVGID_66_" gradientUnits="userSpaceOnUse" x1="14821.559" y1="408.363" x2="14578.256" y2="412.548" gradientTransform="matrix(-1 -.00988 -.00988 1 16548.248 76.16)"><stop offset=".381" stop-color="#293942"/><stop offset="1" stop-color="#1f2c32"/></linearGradient><path d="M1958.5 290.3l-55.5 26.5-20.4 60.3s-21.3 2.7-37.7 3.6c-16.3 1.1-46.3.2-62.7-.7-16.3-.9-52.5-9.1-52.5-9.1l8.1 13.3s27.8 7.3 45.7 8.7c18 1.4 47.8 2.5 69.9 1.2 22.1-1.2 43-2.7 43-2.7l20.6-66.8 60.6-28.4-19.1-5.9z" fill="url(#SVGID_66_)"/><linearGradient id="SVGID_67_" gradientUnits="userSpaceOnUse" x1="14691.403" y1="908.382" x2="14783.765" y2="908.382" gradientTransform="matrix(-.9619 -.09227 -.09728 1.0142 16263.815 700.17)"><stop offset=".264" stop-color="#455a65"/><stop offset="1" stop-color="#19262c"/></linearGradient><path d="M2007.6 188.1c3.2.1 11.7.8 11.7.8l7.7 10.3c12.5 13.8 19.5 39.3 16.8 67.7-2.5 27-13.3 49.8-27.2 61.5l-4.2 5.2s-16.8 2.4-19.9 2.2c-24-2.3-39.3-36.3-37.4-77.4 1.8-41.4 28.5-71.2 52.5-70.3z" fill="url(#SVGID_67_)"/><linearGradient id="SVGID_68_" gradientUnits="userSpaceOnUse" x1="15215.923" y1="804.811" x2="15317.089" y2="877.288" gradientTransform="matrix(-.8946 -.07587 -.08664 .9962 15751.82 576.559)"><stop offset="0" stop-color="#f2c086"/><stop offset=".072" stop-color="#f2c085"/><stop offset=".146" stop-color="#e2b39b"/><stop offset=".202" stop-color="#daaca6"/><stop offset=".223" stop-color="#d9aea8"/><stop offset=".508" stop-color="#d2c7c7"/><stop offset=".668" stop-color="#cfd0d2"/><stop offset=".726" stop-color="#c4c7c9"/><stop offset=".828" stop-color="#a7aeb2"/><stop offset=".961" stop-color="#78858d"/><stop offset=".997" stop-color="#6a7982"/></linearGradient><path d="M1973.5 257.4c-3.9 40 11.1 74.1 33.3 76.2 22.2 2.1 43.4-28.6 47.1-68.6 3.9-39.9-11.1-74.1-33.3-76.2-22.1-2-43.2 28.7-47.1 68.6z" fill="url(#SVGID_68_)"/><linearGradient id="SVGID_69_" gradientUnits="userSpaceOnUse" x1="14551.234" y1="261.379" x2="14505.111" y2="268.439" gradientTransform="matrix(-1 0 0 1 16546.832 0)"><stop offset="0" stop-color="#4d6370"/><stop offset="1" stop-color="#212e34"/></linearGradient><path d="M2024.7 229.9l-.8 7.7c9.5.9 16.1 14 14.7 29.3-1.4 15.3-10.5 26.9-20 26l-.8 7.7c-12.3-1.2-20.7-18-18.8-37.5 2.1-19.6 13.4-34.4 25.7-33.2z" fill="url(#SVGID_69_)"/><linearGradient id="SVGID_70_" gradientUnits="userSpaceOnUse" x1="14695.703" y1="217.261" x2="14415.432" y2="217.261" gradientTransform="matrix(-1.0216 -.0101 -.00988 .9999 16716.955 77.83)"><stop offset="0" stop-color="#5b3528"/><stop offset="1" stop-color="#19262c"/></linearGradient><path d="M1809.5 77.9c88.4-8.7 157.6 47.9 182.8 114.6-9.1 3.6-16.7 27.4-16.7 27.4l-7.2.2s-2.1-.1-2.1-.2c-42.8-45.9-102.3-75.9-184.7-76.6-19-.1-48.1 4-69.3 16l-.1.1-5 9.2-5 9.3-1.3 2.8s-5.2-8-2.8-15.3c13.6-36.4 53.8-81.9 111.4-87.5z" fill="url(#SVGID_70_)"/><linearGradient id="SVGID_71_" gradientUnits="userSpaceOnUse" x1="14456.035" y1="323.051" x2="14644.204" y2="156.154" gradientTransform="matrix(-1.0216 -.0101 -.00988 .9999 16716.955 77.83)"><stop offset="0" stop-color="#273d44"/><stop offset=".487" stop-color="#f16522"/><stop offset=".668" stop-color="#f28f3f"/><stop offset=".888" stop-color="#ed693c"/><stop offset="1" stop-color="#e83e39"/></linearGradient><path d="M1809.6 73c88.4-8.7 164.1 52.2 189.3 118.8-10.2 6-16.8 15.6-23.2 28.2-43.2-48.4-107.4-81.7-192.4-82.5-13.7-.1-33.6 2.4-51.7 8.4-7.7 2.5-15.3 5.9-21.7 9.7-5.4 3.3-12.7 10.7-12.1 17.5-3.2-7.4 2.4-15.8 5.2-21 18.1-34 56.6-74.2 106.6-79.1z" fill="url(#SVGID_71_)"/><linearGradient id="SVGID_72_" gradientUnits="userSpaceOnUse" x1="14732.239" y1="192.765" x2="14848.905" y2="192.765" gradientTransform="matrix(-1 -.00988 -.00988 1 16548.248 76.16)"><stop offset=".057" stop-color="#f16522"/><stop offset="1" stop-color="#f3ddbd"/></linearGradient><path d="M1702.9 152.2c17.7-34.1 55.3-74.2 104.2-79.2 2.5-.2 5-.4 7.4-.6 0 0-40.9 13.5-65.4 35.6-24.1 21.9-33.7 44.4-33.7 44.4-2 1-3.9 2.1-5.6 3.2-5.3 3.3-12.5 10.7-11.8 17.5-3.2-7.6 2.2-15.7 4.9-20.9z" opacity=".59" fill="url(#SVGID_72_)"/><path d="M1701.4 179.5l10.7-20.1 5-2.7 6.5-2.9-12.8 25.9c-9.2 21-13.5 43.6-13.7 69.6-.6 48.4 19.7 96.9 42.6 121.5l2.5 3-9.7-2-2.7-.7c-22.9-24.7-42.5-73.7-42-122 .1-25.9 4.5-48.6 13.6-69.6z" opacity=".45" fill="#bfbebe"/></g><linearGradient id="SVGID_73_" gradientUnits="userSpaceOnUse" x1="14524.024" y1="499.286" x2="14590.887" y2="462.781" gradientTransform="matrix(-1 0 0 1 16546.832 0)"><stop offset="0" stop-color="#f3a98c"/><stop offset=".86" stop-color="#929497"/><stop offset="1" stop-color="#6e7482"/></linearGradient><path d="M2009.9 503c5-6 8.1-10.5 9.7-19.2 1.7-8.7 3.6-17.4 1.2-25.2-2.5-7.9-3.4-9.8-8.1-13.8-4.6-3.9-7-5.4-12.9-6.7-6-1.2-10.7-1.1-17.4 1.1-7.9 2.5-13.9 10.2-18.8 18-4.8 7.9-7.7 12.7-9.7 25.9-2 13.2 1.9 23.3 5 28.2 3 5 7.3 8.7 14.3 9.6 8.2 1 14.5-1.3 20-4.1 5.6-3 11.8-8 16.7-13.8z" fill="url(#SVGID_73_)"/><linearGradient id="SVGID_74_" gradientUnits="userSpaceOnUse" x1="14519.857" y1="499.266" x2="14586.722" y2="462.76" gradientTransform="matrix(-1 0 0 1 16546.832 0)"><stop offset="0" stop-color="#e8cfbe"/><stop offset=".668" stop-color="#d0d2d3"/><stop offset=".997" stop-color="#beb0ad"/></linearGradient><path d="M2014.1 503c5-6 8.1-10.5 9.7-19.2 1.7-8.7 3.6-17.4 1.2-25.2-2.5-7.9-3.4-9.8-8.1-13.8-4.6-3.9-7-5.4-12.9-6.7-6.1-1.2-10.7-1.1-17.4 1.1-7.9 2.5-13.9 10.2-18.8 18-4.8 7.9-7.7 12.7-9.7 25.9-2 13.2 1.9 23.3 5 28.2 3 5 7.3 8.7 14.3 9.6 8.2 1 14.5-1.3 20-4.1 5.5-2.9 11.7-8 16.7-13.8z" fill="url(#SVGID_74_)"/><linearGradient id="SVGID_75_" gradientUnits="userSpaceOnUse" x1="2072.426" y1="181.691" x2="2109.212" y2="181.691" gradientTransform="matrix(1.0102 -.05115 .1058 1.0536 -136.261 395.041)"><stop offset="0" stop-color="#4f5764"/><stop offset=".668" stop-color="#293942"/><stop offset="1" stop-color="#0f1c20"/></linearGradient><path d="M1982.6 473.3c6.2-11.8 15.5-19 24.1-14.8 3.6 1.9 5.5 5 6 8.7l-5.2 4.2c-.4-3-1.4-5.2-4.2-6.6-5-2.4-11.2 2.5-14.9 9.7l-.6 1.2c2.9-2 7.4-3.6 10.9-1.9 5.3 2.7 7.5 9.5 2.9 18.2-4.1 7.5-11.5 11.7-18 8.5-8.6-4.3-7.1-15.8-1-27.2zm13.6 16.5c2.7-5 1-8.8-2.1-10.4-2.5-1.2-6-.7-8.8 1.7-2.1 4.5-3.1 10.6 1.4 12.8 3.7 2.1 7.7-.8 9.5-4.1z" fill="url(#SVGID_75_)"/><linearGradient id="SVGID_76_" gradientUnits="userSpaceOnUse" x1="14585.631" y1="80.927" x2="14748.097" y2="545.54" gradientTransform="matrix(-1 0 0 1 16546.832 0)"><stop offset="0" stop-color="#4e5663"/><stop offset=".668" stop-color="#283841"/><stop offset="1" stop-color="#0f1b21"/></linearGradient><path d="M1729.6 371.1l7.9 12.9-.1 4.1c-6.7 1.9-10.5 4-10.6 6.3l-.1 11.6c0 1.4 1.3 2.7 3.9 3.9 1.5.9 3.1 1.2 4.3 1.8l8.3 12.3.9 3.6h-.1l-4.3.9-10.3 2.2-7.7 6.5-7.7 11.7-6.9 21.3-3.2 20.5 1.1 3 2.1 1.1-.4 6.4 2.1 22.3 11.5 20.5.3.3-.3-.1s16 12.7 16.4 13.1c0 0 .1.1.3.1l.2.1 6.4 2.9c2.7 1.2 5.8 2.7 8.7 4l.7 9 5.2 3.6 1.9 30.7 4.9 32.4 1.4 25.1-6.9 6.2-.1 2.3-6 6.7-3.6 4.6h-2l-8.2 10.6-1.4 12.4 5.8 11.5 18.2 5 4.3-.1 20.4-.7 14.9-6.7v-.9l26.5-12.7 21-16.3 1.8-28.2 2.9-15.6.1-.1 3-11.3 4.4-7.1 9.1.1 9.7 25.7 9.5 29.1-.3.1-3.2 7.2.7 1.7.6-1.5-1.9 5.5-6.6 16.3-.9.2-3.6 9.6 3.6 13.5 11.5 8.5.3.1v.1l3.9.9 14.8 4.2 2.5-.2 1.9-.1v-.1l16.9-1.9v.1l1.2-.1 1.9-.1 19.6-6 7.6-10.2 5.8-6.6 9-12.2 6.4-11.3 3.2-37.1.9-16.8h-.1l4.6-35.5.3-32.6.1-.1 4.8-2.9v-17.1l-3.1-1.1 2.1-8 2.2-.9 20.2-30.3 7.9-26.9 2.8-25.8 1.9-11.5-4.6-14.5-3.9-1.9-8.4-10.9 3.2-11.4c2.7-1.2 4.1-2.2 4.1-3.9l.1-10.5c0-1 .3-2.1-.7-2.9-1-1.2-4.3-2.9-7.3-4l.1-13.1s0-1.3-.1-2.7c-.3-.9-1.4-1.9-4.8-3.2.9-5.2 6-33.8 6-33.8s-.6.9-1.5 2.2l5.9-9c17.7-6.7 33.7-32 36.7-65 .7-8 .7-15.8 0-23.1-1.2-16.6-5.6-31-12.5-40.8-3.4-14.2-9.4-29.5-16-42.4 11.3-10.8 18.4-21.6 20.5-34.7 1.5-7.7 1.4-15.9-.1-24.6-1.4-7.4-6-21.1-11.7-29.6-5-7.4-9.6-6.6-9.7-.1v.3c-.3.9-.7 1.9-.7 3.2-.1 1.8-.1 3.5-.4 5.2-3.4 15.8-14.6 28.2-27.8 38.5-30.5-32.1-72.4-53.5-118.6-57.3l-4.5-.3c-8.8-.6-17.6-.3-26.1.1-5.1.3-10.1.9-14.9 1.7-1.7.2-3.2.6-4.9.9-9.5 1.8-18.6 4.3-26.9 7.4-1.4.6-2.8 1.1-4.1 1.7-1.9.9-3.9 1.7-5.6 2.5-14.6 4-28 11.1-39.8 19.8-1-1.9-1.9-3.9-2.7-6-.7-3.2-1-6.4-.9-10 .1-2.5-.4-4.2-1.4-5v-.3c.3-7.3-4.6-7.3-9.2-.1-5.1 8-10.3 20.9-11.7 27.9-1.4 6.6-1.8 12.9-1.2 19-8.4 10.1-15.4 20.6-20.6 30.6-2.7 5.2-8.1 13.5-5 21v-.1.1c.7 3.2 2.1 5.8 2.7 6.9l.2.6.1.2c-1 2.3-1.9 4.6-2.9 7-5.8 14.2-8.4 28.2-9.5 44-.6 5.6-.8 11.5-.9 17.4-.1 4.6.1 9.3.3 13.9 1.7 28.2 10 55.9 21.2 77.9.1.3.3.8.6 1.1.1.1.1.3.3.6 6.4 12.6 13.1 22.3 19.9 29.8zm7.6-158.2l-16-7.2 9.5-11.3 19.7-3.6-15.8-12.2 21.3-6.9 14.5 4.3c1.3-3.3 3.2-7.2 6.6-10.9.1-.1.3-.4.7-.7l.1-.1.9-.9c2.9-3 8-7.7 8-7.7s23.2 3.9 28.2 4.5c7.9 1.1 34.8 19.9 34.8 19.9s7.6.8 17.4 4.6c9.7 3.9 37.6 20.9 37.6 20.9s15 11.3 17 14.3c1.7 2.5 10.8 21.9 11.4 28.4.6 6.5-7.1 57.6-7.1 57.6l-22.9 10.9-20.7 61.5-32 3.6H1782l-31.2-4.9s2.9-58.3 2-84.1c-.9-25.9-9.7-73.1-9.7-73.1l-5.9-6.9z" opacity=".1" fill="url(#SVGID_76_)"/></g></svg>