<svg version="1.1" id="Layer_1" xmlns="http://www.w3.org/2000/svg" x="0" y="0" width="270" height="270" xml:space="preserve"><style>.st1{fill:none;stroke:#26373e;stroke-width:.6356;stroke-miterlimit:10}.st2{fill:#4f5764}</style><g opacity=".16"><path class="st1" d="M14.5 191.2l222.9 23.7-80.9-203.3-142 176.1L49.4 38.9l213.9 134.3-153.6 82.6L8.7 77.7"/><path class="st1" d="M49.4 38.9l107.1-27.3 106.8 161.6"/><circle class="st2" cx="49.4" cy="38.9" r="5.1"/><circle class="st2" cx="156.5" cy="11.6" r="5.1"/><circle class="st2" cx="263.3" cy="173.2" r="5.7"/><circle class="st2" cx="237.4" cy="214.9" r="5.1"/><circle class="st2" cx="109.7" cy="255.8" r="4.8"/><circle class="st2" cx="8.7" cy="77.7" r="5.9"/><circle class="st2" cx="14.5" cy="187.7" r="6.7"/></g><linearGradient id="SVGID_1_" gradientUnits="userSpaceOnUse" x1="89.847" y1="134.696" x2="163.246" y2="134.696"><stop offset="0" stop-color="#4f5764"/><stop offset=".668" stop-color="#293942"/><stop offset="1" stop-color="#111c21"/></linearGradient><path fill="url(#SVGID_1_)" d="M89.8 81.4h73.4V188H89.8z"/><linearGradient id="SVGID_2_" gradientUnits="userSpaceOnUse" x1="90.633" y1="179.444" x2="156.17" y2="81.795"><stop offset="0" stop-color="#d0d1d3"/><stop offset=".496" stop-color="#cdd2d1"/><stop offset=".994" stop-color="#f2f2f2"/></linearGradient><path fill="url(#SVGID_2_)" d="M89.8 81.4h66.6v99.2H89.8z"/><linearGradient id="SVGID_3_" gradientUnits="userSpaceOnUse" x1="172.326" y1="178.44" x2="190.02" y2="114.214"><stop offset="0" stop-color="#3d96d2"/><stop offset="1" stop-color="#069fb0"/></linearGradient><path fill="url(#SVGID_3_)" d="M186.2 180.6h-10.5v-66.9l5.2-12.9 5.3 12.9z"/><path d="M111.3 132.4v-17.8h12.6v3.3h-8.8v3.7h8.6v3.3h-8.6v7.4h-3.8zm14.4-8.8c0-5.4 3-9.2 8.3-9.2 2.2 0 4 .7 5.3 1.8l-1.7 2.9c-1-.9-2-1.4-3.5-1.4-2.6 0-4.5 2.2-4.5 5v.4c.8-1.2 2.6-2.3 4.6-2.3 3.2 0 6.1 2 6.1 5.8 0 3.5-2.8 6.1-6.8 6.1-5.5.1-7.8-4.1-7.8-9.1zm10.7 3.2c0-1.9-1.6-2.7-3.3-2.7-1.3 0-2.6.6-3.5 1.7.2 1.7 1.1 3.6 3.6 3.6 2 0 3.2-1.4 3.2-2.6z" fill="#fff"/><linearGradient id="SVGID_4_" gradientUnits="userSpaceOnUse" x1="83.621" y1="91.602" x2="95.586" y2="91.602"><stop offset="0" stop-color="#3d96d2"/><stop offset="1" stop-color="#069fb0"/></linearGradient><path fill="url(#SVGID_4_)" d="M83.6 89.4h12v4.4h-12z"/><linearGradient id="SVGID_5_" gradientUnits="userSpaceOnUse" x1="83.621" y1="100.461" x2="95.586" y2="100.461"><stop offset="0" stop-color="#3d96d2"/><stop offset="1" stop-color="#069fb0"/></linearGradient><path fill="url(#SVGID_5_)" d="M83.6 98.2h12v4.4h-12z"/><linearGradient id="SVGID_6_" gradientUnits="userSpaceOnUse" x1="83.621" y1="127.039" x2="95.586" y2="127.039"><stop offset="0" stop-color="#3d96d2"/><stop offset="1" stop-color="#069fb0"/></linearGradient><path fill="url(#SVGID_6_)" d="M83.6 124.8h12v4.4h-12z"/><linearGradient id="SVGID_7_" gradientUnits="userSpaceOnUse" x1="83.621" y1="135.899" x2="95.586" y2="135.899"><stop offset="0" stop-color="#3d96d2"/><stop offset="1" stop-color="#069fb0"/></linearGradient><path fill="url(#SVGID_7_)" d="M83.6 133.7h12v4.4h-12z"/><linearGradient id="SVGID_8_" gradientUnits="userSpaceOnUse" x1="83.621" y1="162.477" x2="95.586" y2="162.477"><stop offset="0" stop-color="#3d96d2"/><stop offset="1" stop-color="#069fb0"/></linearGradient><path fill="url(#SVGID_8_)" d="M83.6 160.3h12v4.4h-12z"/><linearGradient id="SVGID_9_" gradientUnits="userSpaceOnUse" x1="83.621" y1="171.337" x2="95.586" y2="171.337"><stop offset="0" stop-color="#3d96d2"/><stop offset="1" stop-color="#069fb0"/></linearGradient><path fill="url(#SVGID_9_)" d="M83.6 169.1h12v4.4h-12z"/><linearGradient id="SVGID_10_" gradientUnits="userSpaceOnUse" x1="83.621" y1="109.32" x2="95.586" y2="109.32"><stop offset="0" stop-color="#3d96d2"/><stop offset="1" stop-color="#069fb0"/></linearGradient><path fill="url(#SVGID_10_)" d="M83.6 107.1h12v4.4h-12z"/><linearGradient id="SVGID_11_" gradientUnits="userSpaceOnUse" x1="83.621" y1="118.18" x2="95.586" y2="118.18"><stop offset="0" stop-color="#3d96d2"/><stop offset="1" stop-color="#069fb0"/></linearGradient><path fill="url(#SVGID_11_)" d="M83.6 116h12v4.4h-12z"/><linearGradient id="SVGID_12_" gradientUnits="userSpaceOnUse" x1="83.621" y1="144.758" x2="95.586" y2="144.758"><stop offset="0" stop-color="#3d96d2"/><stop offset="1" stop-color="#069fb0"/></linearGradient><path fill="url(#SVGID_12_)" d="M83.6 142.5h12v4.4h-12z"/><linearGradient id="SVGID_13_" gradientUnits="userSpaceOnUse" x1="83.621" y1="153.618" x2="95.586" y2="153.618"><stop offset="0" stop-color="#3d96d2"/><stop offset="1" stop-color="#069fb0"/></linearGradient><path fill="url(#SVGID_13_)" d="M83.6 151.4h12v4.4h-12z"/></svg>