<svg version="1.1" id="Layer_1" xmlns="http://www.w3.org/2000/svg" x="0" y="0" width="270" height="270" xml:space="preserve"><style>.st1{fill:none;stroke:#3f5d69;stroke-width:.5134;stroke-miterlimit:10}.st2{fill:#4f5764}</style><g opacity=".2"><path class="st1" d="M91.2 27.9l159.4 88.4-236.9.8 194.5-63m-26.7 173.1l77.2-44.3-251.4-3.7 171.9 49.6"/><path class="st1" d="M7.3 179.2L91.2 27.9l117 26.2 50.5 128.8"/><circle class="st2" cx="7.3" cy="179.2" r="4.1"/><circle class="st2" cx="91.2" cy="27.9" r="4.6"/><circle class="st2" cx="258.7" cy="182.9" r="4.1"/><circle class="st2" cx="208.2" cy="54.1" r="3.3"/><circle class="st2" cx="250.6" cy="116.3" r="3.9"/><circle class="st2" cx="13.7" cy="117.1" r="4.7"/><circle class="st2" cx="179.2" cy="228.8" r="5.4"/></g><linearGradient id="SVGID_1_" gradientUnits="userSpaceOnUse" x1="127.172" y1="187.377" x2="152.018" y2="156.89"><stop offset="0" stop-color="#d0d1d3"/><stop offset=".522" stop-color="#cdd2d1"/><stop offset=".994" stop-color="#f2f2f2"/></linearGradient><path fill="url(#SVGID_1_)" d="M145.4 169.2v-14.7h-11.5v14.7h-21.4v5.7h54.4v-5.7z"/><linearGradient id="SVGID_2_" gradientUnits="userSpaceOnUse" x1="85.1" y1="118.486" x2="194.29" y2="118.486"><stop offset="0" stop-color="#d0d1d3"/><stop offset=".522" stop-color="#cdd2d1"/><stop offset=".994" stop-color="#f2f2f2"/></linearGradient><path fill="url(#SVGID_2_)" d="M85.1 80.7h109.2v75.6H85.1z"/><linearGradient id="SVGID_3_" gradientUnits="userSpaceOnUse" x1="91.138" y1="149.882" x2="188.794" y2="86.74"><stop offset="0" stop-color="#3d96d2"/><stop offset="1" stop-color="#069fb0"/></linearGradient><path fill="url(#SVGID_3_)" d="M89.9 86.4h99.6v64.1H89.9z"/><linearGradient id="SVGID_4_" gradientUnits="userSpaceOnUse" x1="58.898" y1="153.359" x2="119.288" y2="153.359"><stop offset="0" stop-color="#4f5764"/><stop offset=".668" stop-color="#293942"/><stop offset="1" stop-color="#111c21"/></linearGradient><path fill="url(#SVGID_4_)" d="M58.9 114.3h60.4v78H58.9z"/><linearGradient id="SVGID_5_" gradientUnits="userSpaceOnUse" x1="63.337" y1="184.134" x2="114.438" y2="121.431"><stop offset="0" stop-color="#3d96d2"/><stop offset="1" stop-color="#069fb0"/></linearGradient><path fill="url(#SVGID_5_)" d="M63.9 121.7h50.4v61.6H63.9z"/><linearGradient id="SVGID_6_" gradientUnits="userSpaceOnUse" x1="180.405" y1="159.832" x2="210.41" y2="159.832"><stop offset="0" stop-color="#4f5764"/><stop offset=".668" stop-color="#293942"/><stop offset="1" stop-color="#111c21"/></linearGradient><path fill="url(#SVGID_6_)" d="M180.4 137.3h30v45.1h-30z"/><linearGradient id="SVGID_7_" gradientUnits="userSpaceOnUse" x1="184.97" y1="174.527" x2="206.619" y2="142.202"><stop offset="0" stop-color="#3d96d2"/><stop offset="1" stop-color="#069fb0"/></linearGradient><path fill="url(#SVGID_7_)" d="M184.9 143.5h21v30.9h-21z"/></svg>