<svg version="1.1" id="Layer_1" xmlns="http://www.w3.org/2000/svg" x="0" y="0" width="270" height="270" xml:space="preserve"><style>.st1{fill:none;stroke:#3f5d69;stroke-width:.5162;stroke-miterlimit:10}.st2{fill:#4f5764}</style><g opacity=".2"><path class="st1" d="M171 16.5l-162.5 86 151.6 134.1 13.4-218.8 90.9 134.1-184.7 89.2L248 86.7 90.2 25.6l-71 160.6"/><path class="st1" d="M264.4 151.9l-104.3 84.7-80.4 4.5-60.5-54.9-10.7-83.7"/><circle class="st2" cx="264.4" cy="151.9" r="4.1"/><circle class="st2" cx="160.1" cy="236.6" r="4.1"/><circle class="st2" cx="79.7" cy="241.1" r="4.6"/><circle class="st2" cx="8.5" cy="102.5" r="4.1"/><circle class="st2" cx="19.2" cy="186.2" r="3.4"/><circle class="st2" cx="248" cy="86.7" r="3.9"/><circle class="st2" cx="90.2" cy="25.6" r="4.8"/><circle class="st2" cx="173.5" cy="17.8" r="5.4"/></g><linearGradient id="SVGID_1_" gradientUnits="userSpaceOnUse" x1="50.958" y1="135.136" x2="104.538" y2="135.136"><stop offset="0" stop-color="#4f5764"/><stop offset=".668" stop-color="#293942"/><stop offset="1" stop-color="#111c21"/></linearGradient><path d="M51 140.7v-11.1l53.6-23.9V117L62 135.3l42.6 18v11.3L51 140.7z" fill="url(#SVGID_1_)"/><linearGradient id="SVGID_2_" gradientUnits="userSpaceOnUse" x1="112.512" y1="135" x2="156.683" y2="135"><stop offset="0" stop-color="#3d96d2"/><stop offset="1" stop-color="#069fb0"/></linearGradient><path d="M112.5 185.8l33.1-101.5h11.1l-33.1 101.5h-11.1z" fill="url(#SVGID_2_)"/><linearGradient id="SVGID_3_" gradientUnits="userSpaceOnUse" x1="165.462" y1="135.136" x2="219.042" y2="135.136"><stop offset="0" stop-color="#4f5764"/><stop offset=".668" stop-color="#293942"/><stop offset="1" stop-color="#111c21"/></linearGradient><path d="M165.5 164.6v-11.3l42.6-18-42.6-18.3v-11.3l53.6 23.9v11.1l-53.6 23.9z" fill="url(#SVGID_3_)"/></svg>